# Blender 4.3.2
# www.blender.org
o Cone
v 0.000000 2.000000 -1.000000
v 0.195090 2.000000 -0.980785
v 0.382683 2.000000 -0.923880
v 0.555570 2.000000 -0.831470
v 0.707107 2.000000 -0.707107
v 0.831470 2.000000 -0.555570
v 0.923880 2.000000 -0.382683
v 0.980785 2.000000 -0.195090
v 1.000000 2.000000 0.000000
v 0.980785 2.000000 0.195090
v 0.923880 2.000000 0.382683
v 0.831470 2.000000 0.555570
v 0.707107 2.000000 0.707107
v 0.555570 2.000000 0.831470
v 0.382683 2.000000 0.923880
v 0.195090 2.000000 0.980785
v 0.000000 2.000000 1.000000
v -0.195090 2.000000 0.980785
v -0.382683 2.000000 0.923880
v -0.555570 2.000000 0.831470
v -0.707107 2.000000 0.707107
v -0.831470 2.000000 0.555570
v -0.923880 2.000000 0.382683
v -0.980785 2.000000 0.195090
v -1.000000 2.000000 0.000000
v -0.980785 2.000000 -0.195090
v -0.923880 2.000000 -0.382683
v -0.831470 2.000000 -0.555570
v -0.707107 2.000000 -0.707107
v -0.555570 2.000000 -0.831470
v -0.382683 2.000000 -0.923880
v -0.195090 2.000000 -0.980785
v 0.000000 4.000000 0.000000
vn 0.0878 0.4455 -0.8910
vn 0.2599 0.4455 -0.8567
vn 0.4220 0.4455 -0.7896
vn 0.5680 0.4455 -0.6921
vn 0.6921 0.4455 -0.5680
vn 0.7896 0.4455 -0.4220
vn 0.8567 0.4455 -0.2599
vn 0.8910 0.4455 -0.0878
vn 0.8910 0.4455 0.0878
vn 0.8567 0.4455 0.2599
vn 0.7896 0.4455 0.4220
vn 0.6921 0.4455 0.5680
vn 0.5680 0.4455 0.6921
vn 0.4220 0.4455 0.7896
vn 0.2599 0.4455 0.8567
vn 0.0878 0.4455 0.8910
vn -0.0878 0.4455 0.8910
vn -0.2599 0.4455 0.8567
vn -0.4220 0.4455 0.7896
vn -0.5680 0.4455 0.6921
vn -0.6921 0.4455 0.5680
vn -0.7896 0.4455 0.4220
vn -0.8567 0.4455 0.2599
vn -0.8910 0.4455 0.0878
vn -0.8910 0.4455 -0.0878
vn -0.8567 0.4455 -0.2599
vn -0.7896 0.4455 -0.4220
vn -0.6921 0.4455 -0.5680
vn -0.5680 0.4455 -0.6921
vn -0.4220 0.4455 -0.7896
vn -0.0000 -1.0000 -0.0000
vn -0.2599 0.4455 -0.8567
vn -0.0878 0.4455 -0.8910
vt 0.500000 0.989603
vt 0.500000 0.500000
vt 0.595517 0.980196
vt 0.687363 0.952335
vt 0.772009 0.907090
vt 0.846202 0.846202
vt 0.907090 0.772009
vt 0.952335 0.687363
vt 0.980196 0.595517
vt 0.989604 0.500000
vt 0.980196 0.404483
vt 0.952335 0.312637
vt 0.907090 0.227991
vt 0.846202 0.153798
vt 0.772009 0.092910
vt 0.687363 0.047665
vt 0.595517 0.019804
vt 0.500000 0.010397
vt 0.404483 0.019804
vt 0.312637 0.047665
vt 0.227991 0.092910
vt 0.153798 0.153798
vt 0.092910 0.227991
vt 0.047666 0.312637
vt 0.019804 0.404483
vt 0.010397 0.500000
vt 0.019804 0.595517
vt 0.047666 0.687363
vt 0.092910 0.772009
vt 0.153798 0.846202
vt 0.227991 0.907090
vt 0.312637 0.952335
vt 0.796822 0.014612
vt 0.514612 0.203178
vt 0.703178 0.485388
vt 0.404483 0.980196
vt 0.750000 0.490000
vt 0.796822 0.485388
vt 0.841844 0.471731
vt 0.883337 0.449553
vt 0.919706 0.419706
vt 0.949553 0.383337
vt 0.971731 0.341844
vt 0.985388 0.296822
vt 0.990000 0.250000
vt 0.985388 0.203178
vt 0.971731 0.158156
vt 0.949553 0.116663
vt 0.919706 0.080294
vt 0.883337 0.050447
vt 0.841844 0.028269
vt 0.750000 0.010000
vt 0.703178 0.014612
vt 0.658156 0.028269
vt 0.616663 0.050447
vt 0.580294 0.080294
vt 0.550447 0.116663
vt 0.528269 0.158156
vt 0.510000 0.250000
vt 0.514612 0.296822
vt 0.528269 0.341844
vt 0.550447 0.383337
vt 0.580294 0.419706
vt 0.616663 0.449553
vt 0.658156 0.471731
s 0
f 1/1/1 33/2/1 2/3/1
f 2/3/2 33/2/2 3/4/2
f 3/4/3 33/2/3 4/5/3
f 4/5/4 33/2/4 5/6/4
f 5/6/5 33/2/5 6/7/5
f 6/7/6 33/2/6 7/8/6
f 7/8/7 33/2/7 8/9/7
f 8/9/8 33/2/8 9/10/8
f 9/10/9 33/2/9 10/11/9
f 10/11/10 33/2/10 11/12/10
f 11/12/11 33/2/11 12/13/11
f 12/13/12 33/2/12 13/14/12
f 13/14/13 33/2/13 14/15/13
f 14/15/14 33/2/14 15/16/14
f 15/16/15 33/2/15 16/17/15
f 16/17/16 33/2/16 17/18/16
f 17/18/17 33/2/17 18/19/17
f 18/19/18 33/2/18 19/20/18
f 19/20/19 33/2/19 20/21/19
f 20/21/20 33/2/20 21/22/20
f 21/22/21 33/2/21 22/23/21
f 22/23/22 33/2/22 23/24/22
f 23/24/23 33/2/23 24/25/23
f 24/25/24 33/2/24 25/26/24
f 25/26/25 33/2/25 26/27/25
f 26/27/26 33/2/26 27/28/26
f 27/28/27 33/2/27 28/29/27
f 28/29/28 33/2/28 29/30/28
f 29/30/29 33/2/29 30/31/29
f 30/31/30 33/2/30 31/32/30
f 16/33/31 24/34/31 32/35/31
f 31/32/32 33/2/32 32/36/32
f 32/36/33 33/2/33 1/1/33
f 32/35/31 1/37/31 2/38/31
f 2/38/31 3/39/31 4/40/31
f 4/40/31 5/41/31 6/42/31
f 6/42/31 7/43/31 8/44/31
f 8/44/31 9/45/31 10/46/31
f 10/46/31 11/47/31 12/48/31
f 12/48/31 13/49/31 14/50/31
f 14/50/31 15/51/31 16/33/31
f 16/33/31 17/52/31 18/53/31
f 18/53/31 19/54/31 20/55/31
f 20/55/31 21/56/31 22/57/31
f 22/57/31 23/58/31 24/34/31
f 24/34/31 25/59/31 26/60/31
f 26/60/31 27/61/31 28/62/31
f 28/62/31 29/63/31 30/64/31
f 30/64/31 31/65/31 32/35/31
f 32/35/31 2/38/31 4/40/31
f 4/40/31 6/42/31 8/44/31
f 8/44/31 10/46/31 12/48/31
f 12/48/31 14/50/31 16/33/31
f 16/33/31 18/53/31 20/55/31
f 20/55/31 22/57/31 24/34/31
f 24/34/31 26/60/31 28/62/31
f 28/62/31 30/64/31 32/35/31
f 32/35/31 4/40/31 8/44/31
f 8/44/31 12/48/31 16/33/31
f 16/33/31 20/55/31 24/34/31
f 24/34/31 28/62/31 32/35/31
f 32/35/31 8/44/31 16/33/31
o Cone.001
v 0.000000 1.000000 -1.000000
v 0.195090 1.000000 -0.980785
v 0.382683 1.000000 -0.923880
v 0.555570 1.000000 -0.831470
v 0.707107 1.000000 -0.707107
v 0.831470 1.000000 -0.555570
v 0.923880 1.000000 -0.382683
v 0.980785 1.000000 -0.195090
v 1.000000 1.000000 0.000000
v 0.980785 1.000000 0.195090
v 0.923880 1.000000 0.382683
v 0.831470 1.000000 0.555570
v 0.707107 1.000000 0.707107
v 0.555570 1.000000 0.831470
v 0.382683 1.000000 0.923880
v 0.195090 1.000000 0.980785
v 0.000000 1.000000 1.000000
v -0.195090 1.000000 0.980785
v -0.382683 1.000000 0.923880
v -0.555570 1.000000 0.831470
v -0.707107 1.000000 0.707107
v -0.831470 1.000000 0.555570
v -0.923880 1.000000 0.382683
v -0.980785 1.000000 0.195090
v -1.000000 1.000000 0.000000
v -0.980785 1.000000 -0.195090
v -0.923880 1.000000 -0.382683
v -0.831470 1.000000 -0.555570
v -0.707107 1.000000 -0.707107
v -0.555570 1.000000 -0.831470
v -0.382683 1.000000 -0.923880
v -0.195090 1.000000 -0.980785
v 0.000000 3.000000 0.000000
vn 0.0878 0.4455 -0.8910
vn 0.2599 0.4455 -0.8567
vn 0.4220 0.4455 -0.7896
vn 0.5680 0.4455 -0.6921
vn 0.6921 0.4455 -0.5680
vn 0.7896 0.4455 -0.4220
vn 0.8567 0.4455 -0.2599
vn 0.8910 0.4455 -0.0878
vn 0.8910 0.4455 0.0878
vn 0.8567 0.4455 0.2599
vn 0.7896 0.4455 0.4220
vn 0.6921 0.4455 0.5680
vn 0.5680 0.4455 0.6921
vn 0.4220 0.4455 0.7896
vn 0.2599 0.4455 0.8567
vn 0.0878 0.4455 0.8910
vn -0.0878 0.4455 0.8910
vn -0.2599 0.4455 0.8567
vn -0.4220 0.4455 0.7896
vn -0.5680 0.4455 0.6921
vn -0.6921 0.4455 0.5680
vn -0.7896 0.4455 0.4220
vn -0.8567 0.4455 0.2599
vn -0.8910 0.4455 0.0878
vn -0.8910 0.4455 -0.0878
vn -0.8567 0.4455 -0.2599
vn -0.7896 0.4455 -0.4220
vn -0.6921 0.4455 -0.5680
vn -0.5680 0.4455 -0.6921
vn -0.4220 0.4455 -0.7896
vn -0.0000 -1.0000 -0.0000
vn -0.2599 0.4455 -0.8567
vn -0.0878 0.4455 -0.8910
vt 0.500000 0.989603
vt 0.500000 0.500000
vt 0.595517 0.980196
vt 0.687363 0.952335
vt 0.772009 0.907090
vt 0.846202 0.846202
vt 0.907090 0.772009
vt 0.952335 0.687363
vt 0.980196 0.595517
vt 0.989604 0.500000
vt 0.980196 0.404483
vt 0.952335 0.312637
vt 0.907090 0.227991
vt 0.846202 0.153798
vt 0.772009 0.092910
vt 0.687363 0.047665
vt 0.595517 0.019804
vt 0.500000 0.010397
vt 0.404483 0.019804
vt 0.312637 0.047665
vt 0.227991 0.092910
vt 0.153798 0.153798
vt 0.092910 0.227991
vt 0.047666 0.312637
vt 0.019804 0.404483
vt 0.010397 0.500000
vt 0.019804 0.595517
vt 0.047666 0.687363
vt 0.092910 0.772009
vt 0.153798 0.846202
vt 0.227991 0.907090
vt 0.312637 0.952335
vt 0.796822 0.014612
vt 0.514612 0.203178
vt 0.703178 0.485388
vt 0.404483 0.980196
vt 0.750000 0.490000
vt 0.796822 0.485388
vt 0.841844 0.471731
vt 0.883337 0.449553
vt 0.919706 0.419706
vt 0.949553 0.383337
vt 0.971731 0.341844
vt 0.985388 0.296822
vt 0.990000 0.250000
vt 0.985388 0.203178
vt 0.971731 0.158156
vt 0.949553 0.116663
vt 0.919706 0.080294
vt 0.883337 0.050447
vt 0.841844 0.028269
vt 0.750000 0.010000
vt 0.703178 0.014612
vt 0.658156 0.028269
vt 0.616663 0.050447
vt 0.580294 0.080294
vt 0.550447 0.116663
vt 0.528269 0.158156
vt 0.510000 0.250000
vt 0.514612 0.296822
vt 0.528269 0.341844
vt 0.550447 0.383337
vt 0.580294 0.419706
vt 0.616663 0.449553
vt 0.658156 0.471731
s 0
f 34/66/34 66/67/34 35/68/34
f 35/68/35 66/67/35 36/69/35
f 36/69/36 66/67/36 37/70/36
f 37/70/37 66/67/37 38/71/37
f 38/71/38 66/67/38 39/72/38
f 39/72/39 66/67/39 40/73/39
f 40/73/40 66/67/40 41/74/40
f 41/74/41 66/67/41 42/75/41
f 42/75/42 66/67/42 43/76/42
f 43/76/43 66/67/43 44/77/43
f 44/77/44 66/67/44 45/78/44
f 45/78/45 66/67/45 46/79/45
f 46/79/46 66/67/46 47/80/46
f 47/80/47 66/67/47 48/81/47
f 48/81/48 66/67/48 49/82/48
f 49/82/49 66/67/49 50/83/49
f 50/83/50 66/67/50 51/84/50
f 51/84/51 66/67/51 52/85/51
f 52/85/52 66/67/52 53/86/52
f 53/86/53 66/67/53 54/87/53
f 54/87/54 66/67/54 55/88/54
f 55/88/55 66/67/55 56/89/55
f 56/89/56 66/67/56 57/90/56
f 57/90/57 66/67/57 58/91/57
f 58/91/58 66/67/58 59/92/58
f 59/92/59 66/67/59 60/93/59
f 60/93/60 66/67/60 61/94/60
f 61/94/61 66/67/61 62/95/61
f 62/95/62 66/67/62 63/96/62
f 63/96/63 66/67/63 64/97/63
f 49/98/64 57/99/64 65/100/64
f 64/97/65 66/67/65 65/101/65
f 65/101/66 66/67/66 34/66/66
f 65/100/64 34/102/64 35/103/64
f 35/103/64 36/104/64 37/105/64
f 37/105/64 38/106/64 39/107/64
f 39/107/64 40/108/64 41/109/64
f 41/109/64 42/110/64 43/111/64
f 43/111/64 44/112/64 45/113/64
f 45/113/64 46/114/64 47/115/64
f 47/115/64 48/116/64 49/98/64
f 49/98/64 50/117/64 51/118/64
f 51/118/64 52/119/64 53/120/64
f 53/120/64 54/121/64 55/122/64
f 55/122/64 56/123/64 57/99/64
f 57/99/64 58/124/64 59/125/64
f 59/125/64 60/126/64 61/127/64
f 61/127/64 62/128/64 63/129/64
f 63/129/64 64/130/64 65/100/64
f 65/100/64 35/103/64 37/105/64
f 37/105/64 39/107/64 41/109/64
f 41/109/64 43/111/64 45/113/64
f 45/113/64 47/115/64 49/98/64
f 49/98/64 51/118/64 53/120/64
f 53/120/64 55/122/64 57/99/64
f 57/99/64 59/125/64 61/127/64
f 61/127/64 63/129/64 65/100/64
f 65/100/64 37/105/64 41/109/64
f 41/109/64 45/113/64 49/98/64
f 49/98/64 53/120/64 57/99/64
f 57/99/64 61/127/64 65/100/64
f 65/100/64 41/109/64 49/98/64
