# Blender 4.3.2
# www.blender.org
o Plane
v 0.000000 2.000000 0.000000
v -1.000000 0.000000 -0.000000
v 1.000000 0.000000 0.000000
vn -0.0000 -0.0000 1.0000
vt 0.500000 0.750000
vt 1.000000 0.000000
vt 0.000000 0.000000
s 0
f 1/1/1 2/2/1 3/3/1
o Plane.001
v 0.000000 2.000000 0.000000
v -0.000000 0.000000 1.000000
v -0.000000 0.000000 -1.000000
vn 1.0000 -0.0000 -0.0000
vt 0.500000 0.750000
vt 1.000000 0.000000
vt 0.000000 0.000000
s 0
f 4/4/2 5/5/2 6/6/2
o Plane.002
v 0.000000 3.000000 0.000000
v -1.000000 1.000000 -0.000000
v 1.000000 1.000000 0.000000
vn -0.0000 -0.0000 1.0000
vt 0.500000 1.000000
vt 1.000000 0.500000
vt 0.000000 0.500000
s 0
f 7/7/3 8/8/3 9/9/3
o Plane.003
v 0.000000 3.000000 0.000000
v -0.000000 1.000000 1.000000
v -0.000000 1.000000 -1.000000
vn 1.0000 -0.0000 -0.0000
vt 0.500000 1.000000
vt 1.000000 0.500000
vt 0.000000 0.500000
s 0
f 10/10/4 11/11/4 12/12/4
