# Blender 4.3.2
# www.blender.org
o Cone
v -0.707107 0.000000 -0.707107
v 0.707107 0.000000 -0.707107
v 0.707107 0.000000 0.707107
v -0.707107 0.000000 0.707107
v 0.000000 2.000000 0.000000
vn -0.0000 0.3333 -0.9428
vn 0.9428 0.3333 -0.0000
vn -0.0000 -1.0000 -0.0000
vn -0.0000 0.3333 0.9428
vn -0.9428 0.3333 -0.0000
vt 0.000000 0.000000
vt 0.250000 1.000000
vt 0.500000 0.000000
vt 0.401561 0.677495
vt 0.087711 0.991352
vt 0.401565 0.991349
vt 0.087707 0.677499
s 0
f 1/1/1 5/2/1 2/3/1
f 2/3/2 5/2/2 3/1/2
f 2/4/3 4/5/3 1/6/3
f 3/1/4 5/2/4 4/3/4
f 4/3/5 5/2/5 1/1/5
f 2/4/3 3/7/3 4/5/3
