# Blender 4.3.2
# www.blender.org
o Plane.004
v 0.000000 -0.000000 -0.000000
v 0.000000 -0.500000 -0.000000
v -1.000000 0.000000 0.000000
v -1.000000 -0.500000 0.000000
vn -0.0000 -0.0000 -1.0000
vt 0.500000 0.000000
vt 0.000000 1.000000
vt 0.000000 0.000000
vt 0.500000 1.000000
s 0
f 2/1/1 3/2/1 1/3/1
f 2/1/1 4/4/1 3/2/1
o Plane.001
v -0.500000 1.000000 -0.000000
v -0.000000 1.000000 -0.000000
v -0.500000 0.000000 0.000000
v -0.000000 0.000000 0.000000
vn -0.0000 -0.0000 -1.0000
vt 0.500000 0.000000
vt 0.000000 1.000000
vt 0.000000 0.000000
vt 0.500000 1.000000
s 0
f 6/5/2 7/6/2 5/7/2
f 6/5/2 8/8/2 7/6/2
o Plane.002
v 0.000000 0.000000 -0.000000
v 0.500000 0.000000 -0.000000
v 0.000000 -1.000000 0.000000
v 0.500000 -1.000000 0.000000
vn -0.0000 -0.0000 -1.0000
vt 0.500000 0.000000
vt 0.000000 1.000000
vt 0.000000 0.000000
vt 0.500000 1.000000
s 0
f 10/9/3 11/10/3 9/11/3
f 10/9/3 12/12/3 11/10/3
o Plane.003
v 1.000000 0.500000 -0.000000
v 1.000000 -0.000000 -0.000000
v 0.000000 0.500000 0.000000
v 0.000000 0.000000 0.000000
vn -0.0000 -0.0000 -1.0000
vt 0.500000 0.000000
vt 0.000000 1.000000
vt 0.000000 0.000000
vt 0.500000 1.000000
s 0
f 14/13/4 15/14/4 13/15/4
f 14/13/4 16/16/4 15/14/4
o Plane.005
v -1.000000 0.000000 -0.025000
v -1.000000 -0.500000 -0.025000
v 0.000000 -0.000000 -0.025000
v 0.000000 -0.500000 -0.025000
vn -0.0000 -0.0000 1.0000
vt 0.500000 0.000000
vt 0.000000 1.000000
vt 0.000000 0.000000
vt 0.500000 1.000000
s 0
f 18/17/5 19/18/5 17/19/5
f 18/17/5 20/20/5 19/18/5
o Plane.006
v 0.000000 0.500000 -0.025000
v 0.000000 0.000000 -0.025000
v 1.000000 0.500000 -0.025000
v 1.000000 -0.000000 -0.025000
vn -0.0000 -0.0000 1.0000
vt 0.500000 0.000000
vt 0.000000 1.000000
vt 0.000000 0.000000
vt 0.500000 1.000000
s 0
f 22/21/6 23/22/6 21/23/6
f 22/21/6 24/24/6 23/22/6
o Plane.007
v 0.000000 -1.000000 -0.025000
v 0.500000 -1.000000 -0.025000
v 0.000000 0.000000 -0.025000
v 0.500000 0.000000 -0.025000
vn -0.0000 -0.0000 1.0000
vt 0.500000 0.000000
vt 0.000000 1.000000
vt 0.000000 0.000000
vt 0.500000 1.000000
s 0
f 26/25/7 27/26/7 25/27/7
f 26/25/7 28/28/7 27/26/7
o Plane.008
v -0.500000 0.000000 -0.025000
v -0.000000 0.000000 -0.025000
v -0.500000 1.000000 -0.025000
v -0.000000 1.000000 -0.025000
vn -0.0000 -0.0000 1.0000
vt 0.500000 0.000000
vt 0.000000 1.000000
vt 0.000000 0.000000
vt 0.500000 1.000000
s 0
f 30/29/8 31/30/8 29/31/8
f 30/29/8 32/32/8 31/30/8
