# Blender 4.3.2
# www.blender.org
o Roundcube
v 0.577350 -0.577350 -0.577350
v 0.433013 -0.637377 -0.637377
v 0.288675 -0.677003 -0.677003
v 0.144338 -0.699702 -0.699702
v 0.000000 -0.707107 -0.707107
v -0.144338 -0.699702 -0.699702
v -0.288675 -0.677003 -0.677003
v -0.433013 -0.637377 -0.637377
v 0.637377 -0.433013 -0.637377
v 0.478033 -0.478033 -0.736864
v 0.318689 -0.507752 -0.800391
v 0.159344 -0.524777 -0.836193
v 0.000000 -0.530330 -0.847791
v -0.159344 -0.524777 -0.836193
v -0.318689 -0.507752 -0.800391
v -0.478033 -0.478033 -0.736864
v 0.677003 -0.288675 -0.677003
v 0.507752 -0.318689 -0.800391
v 0.338502 -0.338502 -0.877971
v 0.169251 -0.349851 -0.921389
v 0.000000 -0.353553 -0.935414
v -0.169251 -0.349851 -0.921389
v -0.338502 -0.338502 -0.877971
v -0.507752 -0.318689 -0.800391
v 0.699702 -0.144338 -0.699702
v 0.524777 -0.159344 -0.836193
v 0.349851 -0.169251 -0.921389
v 0.174926 -0.174926 -0.968918
v 0.000000 -0.176777 -0.984251
v -0.174926 -0.174926 -0.968918
v -0.349851 -0.169251 -0.921389
v -0.524777 -0.159344 -0.836193
v 0.707107 0.000000 -0.707107
v 0.530330 0.000000 -0.847791
v 0.353553 0.000000 -0.935414
v 0.176777 0.000000 -0.984251
v 0.000000 0.000000 -1.000000
v -0.176777 0.000000 -0.984251
v -0.353553 0.000000 -0.935414
v -0.530330 0.000000 -0.847791
v 0.699702 0.144338 -0.699702
v 0.524777 0.159344 -0.836193
v 0.349851 0.169251 -0.921389
v 0.174926 0.174926 -0.968918
v 0.000000 0.176777 -0.984251
v -0.174926 0.174926 -0.968918
v -0.349851 0.169251 -0.921389
v -0.524777 0.159344 -0.836193
v 0.677003 0.288675 -0.677003
v 0.507752 0.318689 -0.800391
v 0.338502 0.338502 -0.877971
v 0.169251 0.349851 -0.921389
v 0.000000 0.353553 -0.935414
v -0.169251 0.349851 -0.921389
v -0.338502 0.338502 -0.877971
v -0.507752 0.318689 -0.800391
v 0.637377 0.433013 -0.637377
v 0.478033 0.478033 -0.736864
v 0.318689 0.507752 -0.800391
v 0.159344 0.524777 -0.836193
v 0.000000 0.530330 -0.847791
v -0.159344 0.524777 -0.836193
v -0.318689 0.507752 -0.800391
v -0.478033 0.478033 -0.736864
v -0.577350 -0.577350 -0.577350
v -0.637377 -0.637377 -0.433013
v -0.677003 -0.677003 -0.288675
v -0.699702 -0.699702 -0.144338
v -0.707107 -0.707107 0.000000
v -0.699702 -0.699702 0.144338
v -0.677003 -0.677003 0.288675
v -0.637377 -0.637377 0.433013
v -0.637377 -0.433013 -0.637377
v -0.736864 -0.478033 -0.478033
v -0.800391 -0.507752 -0.318689
v -0.836193 -0.524777 -0.159344
v -0.847791 -0.530330 0.000000
v -0.836193 -0.524777 0.159344
v -0.800391 -0.507752 0.318689
v -0.736864 -0.478033 0.478033
v -0.677003 -0.288675 -0.677003
v -0.800391 -0.318689 -0.507752
v -0.877971 -0.338502 -0.338502
v -0.921389 -0.349851 -0.169251
v -0.935414 -0.353553 0.000000
v -0.921389 -0.349851 0.169251
v -0.877971 -0.338502 0.338502
v -0.800391 -0.318689 0.507752
v -0.699702 -0.144338 -0.699702
v -0.836193 -0.159344 -0.524777
v -0.921389 -0.169251 -0.349851
v -0.968918 -0.174926 -0.174926
v -0.984251 -0.176777 0.000000
v -0.968918 -0.174926 0.174926
v -0.921389 -0.169251 0.349851
v -0.836193 -0.159344 0.524777
v -0.707107 0.000000 -0.707107
v -0.847791 0.000000 -0.530330
v -0.935414 0.000000 -0.353553
v -0.984251 0.000000 -0.176777
v -1.000000 0.000000 0.000000
v -0.984251 0.000000 0.176777
v -0.935414 0.000000 0.353553
v -0.847791 0.000000 0.530330
v -0.699702 0.144338 -0.699702
v -0.836193 0.159344 -0.524777
v -0.921389 0.169251 -0.349851
v -0.968918 0.174926 -0.174926
v -0.984251 0.176777 0.000000
v -0.968918 0.174926 0.174926
v -0.921389 0.169251 0.349851
v -0.836193 0.159344 0.524777
v -0.677003 0.288675 -0.677003
v -0.800391 0.318689 -0.507752
v -0.877971 0.338502 -0.338502
v -0.921389 0.349851 -0.169251
v -0.935414 0.353553 0.000000
v -0.921389 0.349851 0.169251
v -0.877971 0.338502 0.338502
v -0.800391 0.318689 0.507752
v -0.637377 0.433013 -0.637377
v -0.736864 0.478033 -0.478033
v -0.800391 0.507752 -0.318689
v -0.836193 0.524777 -0.159344
v -0.847791 0.530330 0.000000
v -0.836193 0.524777 0.159344
v -0.800391 0.507752 0.318689
v -0.736864 0.478033 0.478033
v -0.577350 -0.577350 0.577350
v -0.433013 -0.637377 0.637377
v -0.288675 -0.677003 0.677003
v -0.144338 -0.699702 0.699702
v 0.000000 -0.707107 0.707107
v 0.144338 -0.699702 0.699702
v 0.288675 -0.677003 0.677003
v 0.433013 -0.637377 0.637377
v -0.637377 -0.433013 0.637377
v -0.478033 -0.478033 0.736864
v -0.318689 -0.507752 0.800391
v -0.159344 -0.524777 0.836193
v 0.000000 -0.530330 0.847791
v 0.159344 -0.524777 0.836193
v 0.318689 -0.507752 0.800391
v 0.478033 -0.478033 0.736864
v -0.677003 -0.288675 0.677003
v -0.507752 -0.318689 0.800391
v -0.338502 -0.338502 0.877971
v -0.169251 -0.349851 0.921389
v 0.000000 -0.353553 0.935414
v 0.169251 -0.349851 0.921389
v 0.338502 -0.338502 0.877971
v 0.507752 -0.318689 0.800391
v -0.699702 -0.144338 0.699702
v -0.524777 -0.159344 0.836193
v -0.349851 -0.169251 0.921389
v -0.174926 -0.174926 0.968918
v 0.000000 -0.176777 0.984251
v 0.174926 -0.174926 0.968918
v 0.349851 -0.169251 0.921389
v 0.524777 -0.159344 0.836193
v -0.707107 0.000000 0.707107
v -0.530330 0.000000 0.847791
v -0.353553 0.000000 0.935414
v -0.176777 0.000000 0.984251
v 0.000000 0.000000 1.000000
v 0.176777 0.000000 0.984251
v 0.353553 0.000000 0.935414
v 0.530330 0.000000 0.847791
v -0.699702 0.144338 0.699702
v -0.524777 0.159344 0.836193
v -0.349851 0.169251 0.921389
v -0.174926 0.174926 0.968918
v 0.000000 0.176777 0.984251
v 0.174926 0.174926 0.968918
v 0.349851 0.169251 0.921389
v 0.524777 0.159344 0.836193
v -0.677003 0.288675 0.677003
v -0.507752 0.318689 0.800391
v -0.338502 0.338502 0.877971
v -0.169251 0.349851 0.921389
v 0.000000 0.353553 0.935414
v 0.169251 0.349851 0.921389
v 0.338502 0.338502 0.877971
v 0.507752 0.318689 0.800391
v -0.637377 0.433013 0.637377
v -0.478033 0.478033 0.736864
v -0.318689 0.507752 0.800391
v -0.159344 0.524777 0.836193
v 0.000000 0.530330 0.847791
v 0.159344 0.524777 0.836193
v 0.318689 0.507752 0.800391
v 0.478033 0.478033 0.736864
v 0.577350 -0.577350 0.577350
v 0.637377 -0.637377 0.433013
v 0.677003 -0.677003 0.288675
v 0.699702 -0.699702 0.144338
v 0.707107 -0.707107 0.000000
v 0.699702 -0.699702 -0.144338
v 0.677003 -0.677003 -0.288675
v 0.637377 -0.637377 -0.433013
v 0.637377 -0.433013 0.637377
v 0.736864 -0.478033 0.478033
v 0.800391 -0.507752 0.318689
v 0.836193 -0.524777 0.159344
v 0.847791 -0.530330 0.000000
v 0.836193 -0.524777 -0.159344
v 0.800391 -0.507752 -0.318689
v 0.736864 -0.478033 -0.478033
v 0.677003 -0.288675 0.677003
v 0.800391 -0.318689 0.507752
v 0.877971 -0.338502 0.338502
v 0.921389 -0.349851 0.169251
v 0.935414 -0.353553 0.000000
v 0.921389 -0.349851 -0.169251
v 0.877971 -0.338502 -0.338502
v 0.800391 -0.318689 -0.507752
v 0.699702 -0.144338 0.699702
v 0.836193 -0.159344 0.524777
v 0.921389 -0.169251 0.349851
v 0.968918 -0.174926 0.174926
v 0.984251 -0.176777 0.000000
v 0.968918 -0.174926 -0.174926
v 0.921389 -0.169251 -0.349851
v 0.836193 -0.159344 -0.524777
v 0.707107 0.000000 0.707107
v 0.847791 0.000000 0.530330
v 0.935414 0.000000 0.353553
v 0.984251 0.000000 0.176777
v 1.000000 0.000000 0.000000
v 0.984251 0.000000 -0.176777
v 0.935414 0.000000 -0.353553
v 0.847791 0.000000 -0.530330
v 0.699702 0.144338 0.699702
v 0.836193 0.159344 0.524777
v 0.921389 0.169251 0.349851
v 0.968918 0.174926 0.174926
v 0.984251 0.176777 0.000000
v 0.968918 0.174926 -0.174926
v 0.921389 0.169251 -0.349851
v 0.836193 0.159344 -0.524777
v 0.677003 0.288675 0.677003
v 0.800391 0.318689 0.507752
v 0.877971 0.338502 0.338502
v 0.921389 0.349851 0.169251
v 0.935414 0.353553 0.000000
v 0.921389 0.349851 -0.169251
v 0.877971 0.338502 -0.338502
v 0.800391 0.318689 -0.507752
v 0.637377 0.433013 0.637377
v 0.736864 0.478033 0.478033
v 0.800391 0.507752 0.318689
v 0.836193 0.524777 0.159344
v 0.847791 0.530330 0.000000
v 0.836193 0.524777 -0.159344
v 0.800391 0.507752 -0.318689
v 0.736864 0.478033 -0.478033
v 0.478033 -0.736864 0.478033
v 0.318689 -0.800391 0.507752
v 0.159344 -0.836193 0.524777
v 0.000000 -0.847791 0.530330
v -0.159344 -0.836193 0.524777
v -0.318689 -0.800391 0.507752
v -0.478033 -0.736864 0.478033
v 0.507752 -0.800391 0.318689
v 0.338502 -0.877971 0.338502
v 0.169251 -0.921389 0.349851
v 0.000000 -0.935414 0.353553
v -0.169251 -0.921389 0.349851
v -0.338502 -0.877971 0.338502
v -0.507752 -0.800391 0.318689
v 0.524777 -0.836193 0.159344
v 0.349851 -0.921389 0.169251
v 0.174926 -0.968918 0.174926
v 0.000000 -0.984251 0.176777
v -0.174926 -0.968918 0.174926
v -0.349851 -0.921389 0.169251
v -0.524777 -0.836193 0.159344
v 0.530330 -0.847791 0.000000
v 0.353553 -0.935414 0.000000
v 0.176777 -0.984251 0.000000
v 0.000000 -1.000000 0.000000
v -0.176777 -0.984251 0.000000
v -0.353553 -0.935414 0.000000
v -0.530330 -0.847791 0.000000
v 0.524777 -0.836193 -0.159344
v 0.349851 -0.921389 -0.169251
v 0.174926 -0.968918 -0.174926
v 0.000000 -0.984251 -0.176777
v -0.174926 -0.968918 -0.174926
v -0.349851 -0.921389 -0.169251
v -0.524777 -0.836193 -0.159344
v 0.507752 -0.800391 -0.318689
v 0.338502 -0.877971 -0.338502
v 0.169251 -0.921389 -0.349851
v 0.000000 -0.935414 -0.353553
v -0.169251 -0.921389 -0.349851
v -0.338502 -0.877971 -0.338502
v -0.507752 -0.800391 -0.318689
v 0.478033 -0.736864 -0.478033
v 0.318689 -0.800391 -0.507752
v 0.159344 -0.836193 -0.524777
v 0.000000 -0.847791 -0.530330
v -0.159344 -0.836193 -0.524777
v -0.318689 -0.800391 -0.507752
v -0.478033 -0.736864 -0.478033
v 0.577350 0.577350 -0.577350
v 0.433013 0.637377 -0.637377
v 0.288675 0.677003 -0.677003
v 0.144338 0.699702 -0.699702
v 0.000000 0.707107 -0.707107
v -0.144338 0.699702 -0.699702
v -0.288675 0.677003 -0.677003
v -0.433013 0.637377 -0.637377
v -0.577350 0.577350 -0.577350
v 0.637377 0.637377 -0.433013
v 0.478033 0.736864 -0.478033
v 0.318689 0.800391 -0.507752
v 0.159344 0.836193 -0.524777
v 0.000000 0.847791 -0.530330
v -0.159344 0.836193 -0.524777
v -0.318689 0.800391 -0.507752
v -0.478033 0.736864 -0.478033
v -0.637377 0.637377 -0.433013
v 0.677003 0.677003 -0.288675
v 0.507752 0.800391 -0.318689
v 0.338502 0.877971 -0.338502
v 0.169251 0.921389 -0.349851
v 0.000000 0.935414 -0.353553
v -0.169251 0.921389 -0.349851
v -0.338502 0.877971 -0.338502
v -0.507752 0.800391 -0.318689
v -0.677003 0.677003 -0.288675
v 0.699702 0.699702 -0.144338
v 0.524777 0.836193 -0.159344
v 0.349851 0.921389 -0.169251
v 0.174926 0.968918 -0.174926
v 0.000000 0.984251 -0.176777
v -0.174926 0.968918 -0.174926
v -0.349851 0.921389 -0.169251
v -0.524777 0.836193 -0.159344
v -0.699702 0.699702 -0.144338
v 0.707107 0.707107 0.000000
v 0.530330 0.847791 0.000000
v 0.353553 0.935414 0.000000
v 0.176777 0.984251 0.000000
v 0.000000 1.000000 0.000000
v -0.176777 0.984251 0.000000
v -0.353553 0.935414 0.000000
v -0.530330 0.847791 0.000000
v -0.707107 0.707107 0.000000
v 0.699702 0.699702 0.144338
v 0.524777 0.836193 0.159344
v 0.349851 0.921389 0.169251
v 0.174926 0.968918 0.174926
v 0.000000 0.984251 0.176777
v -0.174926 0.968918 0.174926
v -0.349851 0.921389 0.169251
v -0.524777 0.836193 0.159344
v -0.699702 0.699702 0.144338
v 0.677003 0.677003 0.288675
v 0.507752 0.800391 0.318689
v 0.338502 0.877971 0.338502
v 0.169251 0.921389 0.349851
v 0.000000 0.935414 0.353553
v -0.169251 0.921389 0.349851
v -0.338502 0.877971 0.338502
v -0.507752 0.800391 0.318689
v -0.677003 0.677003 0.288675
v 0.637377 0.637377 0.433013
v 0.478033 0.736864 0.478033
v 0.318689 0.800391 0.507752
v 0.159344 0.836193 0.524777
v 0.000000 0.847791 0.530330
v -0.159344 0.836193 0.524777
v -0.318689 0.800391 0.507752
v -0.478033 0.736864 0.478033
v -0.637377 0.637377 0.433013
v 0.577350 0.577350 0.577350
v 0.433013 0.637377 0.637377
v 0.288675 0.677003 0.677003
v 0.144338 0.699702 0.699702
v 0.000000 0.707107 0.707107
v -0.144338 0.699702 0.699702
v -0.288675 0.677003 0.677003
v -0.433013 0.637377 0.637377
v -0.577350 0.577350 0.577350
vn 0.5552 -0.5056 -0.6604
vn 0.3944 -0.5643 -0.7253
vn 0.2359 -0.5994 -0.7649
vn 0.0785 -0.6174 -0.7827
vn -0.0719 -0.6211 -0.7804
vn -0.2159 -0.6121 -0.7607
vn -0.3604 -0.5904 -0.7222
vn -0.5056 -0.5552 -0.6604
vn 0.5904 -0.3604 -0.7222
vn 0.4200 -0.4026 -0.8134
vn 0.2514 -0.4275 -0.8684
vn 0.0837 -0.4402 -0.8940
vn -0.0804 -0.4427 -0.8931
vn -0.2414 -0.4359 -0.8670
vn -0.4026 -0.4200 -0.8134
vn -0.5643 -0.3944 -0.7253
vn 0.6121 -0.2159 -0.7607
vn 0.4359 -0.2414 -0.8670
vn 0.2612 -0.2563 -0.9307
vn 0.0870 -0.2638 -0.9606
vn -0.0854 -0.2653 -0.9604
vn -0.2563 -0.2612 -0.9307
vn -0.4275 -0.2514 -0.8684
vn -0.5994 -0.2359 -0.7649
vn 0.6211 -0.0719 -0.7804
vn 0.4427 -0.0804 -0.8931
vn 0.2653 -0.0854 -0.9604
vn 0.0884 -0.0879 -0.9922
vn -0.0879 -0.0884 -0.9922
vn -0.2638 -0.0870 -0.9606
vn -0.4402 -0.0837 -0.8940
vn -0.6174 -0.0785 -0.7827
vn 0.6211 0.0719 -0.7804
vn 0.4427 0.0804 -0.8931
vn 0.2653 0.0854 -0.9604
vn 0.0884 0.0879 -0.9922
vn -0.0879 0.0884 -0.9922
vn -0.2638 0.0870 -0.9606
vn -0.4402 0.0837 -0.8940
vn -0.6174 0.0785 -0.7827
vn 0.6121 0.2159 -0.7607
vn 0.4359 0.2414 -0.8670
vn 0.2612 0.2563 -0.9307
vn 0.0870 0.2638 -0.9606
vn -0.0854 0.2653 -0.9604
vn -0.2563 0.2612 -0.9307
vn -0.4275 0.2514 -0.8684
vn -0.5994 0.2359 -0.7649
vn 0.5904 0.3604 -0.7222
vn 0.4200 0.4026 -0.8134
vn 0.2514 0.4275 -0.8684
vn 0.0837 0.4402 -0.8940
vn -0.0804 0.4427 -0.8931
vn -0.2414 0.4359 -0.8670
vn -0.4026 0.4200 -0.8134
vn -0.5643 0.3944 -0.7253
vn 0.5552 0.5056 -0.6604
vn 0.3944 0.5643 -0.7253
vn 0.2359 0.5994 -0.7649
vn 0.0785 0.6174 -0.7827
vn -0.0719 0.6211 -0.7804
vn -0.2159 0.6121 -0.7607
vn -0.3604 0.5904 -0.7222
vn -0.5056 0.5552 -0.6604
vn -0.6604 -0.5056 -0.5552
vn -0.7253 -0.5643 -0.3944
vn -0.7649 -0.5994 -0.2359
vn -0.7827 -0.6174 -0.0785
vn -0.7804 -0.6211 0.0719
vn -0.7607 -0.6121 0.2159
vn -0.7222 -0.5904 0.3604
vn -0.6604 -0.5552 0.5056
vn -0.7222 -0.3604 -0.5904
vn -0.8134 -0.4026 -0.4200
vn -0.8684 -0.4275 -0.2514
vn -0.8940 -0.4402 -0.0837
vn -0.8931 -0.4427 0.0804
vn -0.8670 -0.4359 0.2414
vn -0.8134 -0.4200 0.4026
vn -0.7253 -0.3944 0.5643
vn -0.7607 -0.2159 -0.6121
vn -0.8670 -0.2414 -0.4359
vn -0.9307 -0.2563 -0.2612
vn -0.9606 -0.2638 -0.0870
vn -0.9604 -0.2653 0.0854
vn -0.9307 -0.2612 0.2563
vn -0.8684 -0.2514 0.4275
vn -0.7649 -0.2359 0.5994
vn -0.7804 -0.0719 -0.6211
vn -0.8931 -0.0804 -0.4427
vn -0.9604 -0.0854 -0.2653
vn -0.9922 -0.0879 -0.0884
vn -0.9922 -0.0884 0.0879
vn -0.9606 -0.0870 0.2638
vn -0.8940 -0.0837 0.4402
vn -0.7827 -0.0785 0.6174
vn -0.7804 0.0719 -0.6211
vn -0.8931 0.0804 -0.4427
vn -0.9604 0.0854 -0.2653
vn -0.9922 0.0879 -0.0884
vn -0.9922 0.0884 0.0879
vn -0.9606 0.0870 0.2638
vn -0.8940 0.0837 0.4402
vn -0.7827 0.0785 0.6174
vn -0.7607 0.2159 -0.6121
vn -0.8670 0.2414 -0.4359
vn -0.9307 0.2563 -0.2612
vn -0.9606 0.2638 -0.0870
vn -0.9604 0.2653 0.0854
vn -0.9307 0.2612 0.2563
vn -0.8684 0.2514 0.4275
vn -0.7649 0.2359 0.5994
vn -0.7222 0.3604 -0.5904
vn -0.8134 0.4026 -0.4200
vn -0.8684 0.4275 -0.2514
vn -0.8940 0.4402 -0.0837
vn -0.8931 0.4427 0.0804
vn -0.8670 0.4359 0.2414
vn -0.8134 0.4200 0.4026
vn -0.7253 0.3944 0.5643
vn -0.6604 0.5056 -0.5552
vn -0.7253 0.5643 -0.3944
vn -0.7649 0.5994 -0.2359
vn -0.7827 0.6174 -0.0785
vn -0.7804 0.6211 0.0719
vn -0.7607 0.6121 0.2159
vn -0.7222 0.5904 0.3604
vn -0.6604 0.5552 0.5056
vn -0.5552 -0.5056 0.6604
vn -0.3944 -0.5643 0.7253
vn -0.2359 -0.5994 0.7649
vn -0.0785 -0.6174 0.7827
vn 0.0719 -0.6211 0.7804
vn 0.2159 -0.6121 0.7607
vn 0.3604 -0.5904 0.7222
vn 0.5056 -0.5552 0.6604
vn -0.5904 -0.3604 0.7222
vn -0.4200 -0.4026 0.8134
vn -0.2514 -0.4275 0.8684
vn -0.0837 -0.4402 0.8940
vn 0.0804 -0.4427 0.8931
vn 0.2414 -0.4359 0.8670
vn 0.4026 -0.4200 0.8134
vn 0.5643 -0.3944 0.7253
vn -0.6121 -0.2159 0.7607
vn -0.4359 -0.2414 0.8670
vn -0.2612 -0.2563 0.9307
vn -0.0870 -0.2638 0.9606
vn 0.0854 -0.2653 0.9604
vn 0.2563 -0.2612 0.9307
vn 0.4275 -0.2514 0.8684
vn 0.5994 -0.2359 0.7649
vn -0.6211 -0.0719 0.7804
vn -0.4427 -0.0804 0.8931
vn -0.2653 -0.0854 0.9604
vn -0.0884 -0.0879 0.9922
vn 0.0879 -0.0884 0.9922
vn 0.2638 -0.0870 0.9606
vn 0.4402 -0.0837 0.8940
vn 0.6174 -0.0785 0.7827
vn -0.6211 0.0719 0.7804
vn -0.4427 0.0804 0.8931
vn -0.2653 0.0854 0.9604
vn -0.0884 0.0879 0.9922
vn 0.0879 0.0884 0.9922
vn 0.2638 0.0870 0.9606
vn 0.4402 0.0837 0.8940
vn 0.6174 0.0785 0.7827
vn -0.6121 0.2159 0.7607
vn -0.4359 0.2414 0.8670
vn -0.2612 0.2563 0.9307
vn -0.0870 0.2638 0.9606
vn 0.0854 0.2653 0.9604
vn 0.2563 0.2612 0.9307
vn 0.4275 0.2514 0.8684
vn 0.5994 0.2359 0.7649
vn -0.5904 0.3604 0.7222
vn -0.4200 0.4026 0.8134
vn -0.2514 0.4275 0.8684
vn -0.0837 0.4402 0.8940
vn 0.0804 0.4427 0.8931
vn 0.2414 0.4359 0.8670
vn 0.4026 0.4200 0.8134
vn 0.5643 0.3944 0.7253
vn -0.5552 0.5056 0.6604
vn -0.3944 0.5643 0.7253
vn -0.2359 0.5994 0.7649
vn -0.0785 0.6174 0.7827
vn 0.0719 0.6211 0.7804
vn 0.2159 0.6121 0.7607
vn 0.3604 0.5904 0.7222
vn 0.5056 0.5552 0.6604
vn 0.6604 -0.5056 0.5552
vn 0.7253 -0.5643 0.3944
vn 0.7649 -0.5994 0.2359
vn 0.7827 -0.6174 0.0785
vn 0.7804 -0.6211 -0.0719
vn 0.7607 -0.6121 -0.2159
vn 0.7222 -0.5904 -0.3604
vn 0.6604 -0.5552 -0.5056
vn 0.7222 -0.3604 0.5904
vn 0.8134 -0.4026 0.4200
vn 0.8684 -0.4275 0.2514
vn 0.8940 -0.4402 0.0837
vn 0.8931 -0.4427 -0.0804
vn 0.8670 -0.4359 -0.2414
vn 0.8134 -0.4200 -0.4026
vn 0.7253 -0.3944 -0.5643
vn 0.7607 -0.2159 0.6121
vn 0.8670 -0.2414 0.4359
vn 0.9307 -0.2563 0.2612
vn 0.9606 -0.2638 0.0870
vn 0.9604 -0.2653 -0.0854
vn 0.9307 -0.2612 -0.2563
vn 0.8684 -0.2514 -0.4275
vn 0.7649 -0.2359 -0.5994
vn 0.7804 -0.0719 0.6211
vn 0.8931 -0.0804 0.4427
vn 0.9604 -0.0854 0.2653
vn 0.9922 -0.0879 0.0884
vn 0.9922 -0.0884 -0.0879
vn 0.9606 -0.0870 -0.2638
vn 0.8940 -0.0837 -0.4402
vn 0.7827 -0.0785 -0.6174
vn 0.7804 0.0719 0.6211
vn 0.8931 0.0804 0.4427
vn 0.9604 0.0854 0.2653
vn 0.9922 0.0879 0.0884
vn 0.9922 0.0884 -0.0879
vn 0.9606 0.0870 -0.2638
vn 0.8940 0.0837 -0.4402
vn 0.7827 0.0785 -0.6174
vn 0.7607 0.2159 0.6121
vn 0.8670 0.2414 0.4359
vn 0.9307 0.2563 0.2612
vn 0.9606 0.2638 0.0870
vn 0.9604 0.2653 -0.0854
vn 0.9307 0.2612 -0.2563
vn 0.8684 0.2514 -0.4275
vn 0.7649 0.2359 -0.5994
vn 0.7222 0.3604 0.5904
vn 0.8134 0.4026 0.4200
vn 0.8684 0.4275 0.2514
vn 0.8940 0.4402 0.0837
vn 0.8931 0.4427 -0.0804
vn 0.8670 0.4359 -0.2414
vn 0.8134 0.4200 -0.4026
vn 0.7253 0.3944 -0.5643
vn 0.6604 0.5056 0.5552
vn 0.7253 0.5643 0.3944
vn 0.7649 0.5994 0.2359
vn 0.7827 0.6174 0.0785
vn 0.7804 0.6211 -0.0719
vn 0.7607 0.6121 -0.2159
vn 0.7222 0.5904 -0.3604
vn 0.6604 0.5552 -0.5056
vn 0.5552 -0.6604 0.5056
vn 0.3944 -0.7253 0.5643
vn 0.2359 -0.7649 0.5994
vn 0.0785 -0.7827 0.6174
vn -0.0719 -0.7804 0.6211
vn -0.2159 -0.7607 0.6121
vn -0.3604 -0.7222 0.5904
vn -0.5056 -0.6604 0.5552
vn 0.5904 -0.7222 0.3604
vn 0.4200 -0.8134 0.4026
vn 0.2514 -0.8684 0.4275
vn 0.0837 -0.8940 0.4402
vn -0.0804 -0.8931 0.4427
vn -0.2414 -0.8670 0.4359
vn -0.4026 -0.8134 0.4200
vn -0.5643 -0.7253 0.3944
vn 0.6121 -0.7607 0.2159
vn 0.4359 -0.8670 0.2414
vn 0.2612 -0.9307 0.2563
vn 0.0870 -0.9606 0.2638
vn -0.0854 -0.9604 0.2653
vn -0.2563 -0.9307 0.2612
vn -0.4275 -0.8684 0.2514
vn -0.5994 -0.7649 0.2359
vn 0.6211 -0.7804 0.0719
vn 0.4427 -0.8931 0.0804
vn 0.2653 -0.9604 0.0854
vn 0.0884 -0.9922 0.0879
vn -0.0879 -0.9922 0.0884
vn -0.2638 -0.9606 0.0870
vn -0.4402 -0.8940 0.0837
vn -0.6174 -0.7827 0.0785
vn 0.6211 -0.7804 -0.0719
vn 0.4427 -0.8931 -0.0804
vn 0.2653 -0.9604 -0.0854
vn 0.0884 -0.9922 -0.0879
vn -0.0879 -0.9922 -0.0884
vn -0.2638 -0.9606 -0.0870
vn -0.4402 -0.8940 -0.0837
vn -0.6174 -0.7827 -0.0785
vn 0.6121 -0.7607 -0.2159
vn 0.4359 -0.8670 -0.2414
vn 0.2612 -0.9307 -0.2563
vn 0.0870 -0.9606 -0.2638
vn -0.0854 -0.9604 -0.2653
vn -0.2563 -0.9307 -0.2612
vn -0.4275 -0.8684 -0.2514
vn -0.5994 -0.7649 -0.2359
vn 0.5904 -0.7222 -0.3604
vn 0.4200 -0.8134 -0.4026
vn 0.2514 -0.8684 -0.4275
vn 0.0837 -0.8940 -0.4402
vn -0.0804 -0.8931 -0.4427
vn -0.2414 -0.8670 -0.4359
vn -0.4026 -0.8134 -0.4200
vn -0.5643 -0.7253 -0.3944
vn 0.5552 -0.6604 -0.5056
vn 0.3944 -0.7253 -0.5643
vn 0.2359 -0.7649 -0.5994
vn 0.0785 -0.7827 -0.6174
vn -0.0719 -0.7804 -0.6211
vn -0.2159 -0.7607 -0.6121
vn -0.3604 -0.7222 -0.5904
vn -0.5056 -0.6604 -0.5552
vn 0.5552 0.6604 -0.5056
vn 0.3944 0.7253 -0.5643
vn 0.2359 0.7649 -0.5994
vn 0.0785 0.7827 -0.6174
vn -0.0719 0.7804 -0.6211
vn -0.2159 0.7607 -0.6121
vn -0.3604 0.7222 -0.5904
vn -0.5056 0.6604 -0.5552
vn 0.5904 0.7222 -0.3604
vn 0.4200 0.8134 -0.4026
vn 0.2514 0.8684 -0.4275
vn 0.0837 0.8940 -0.4402
vn -0.0804 0.8931 -0.4427
vn -0.2414 0.8670 -0.4359
vn -0.4026 0.8134 -0.4200
vn -0.5643 0.7253 -0.3944
vn 0.6121 0.7607 -0.2159
vn 0.4359 0.8670 -0.2414
vn 0.2612 0.9307 -0.2563
vn 0.0870 0.9606 -0.2638
vn -0.0854 0.9604 -0.2653
vn -0.2563 0.9307 -0.2612
vn -0.4275 0.8684 -0.2514
vn -0.5994 0.7649 -0.2359
vn 0.6211 0.7804 -0.0719
vn 0.4427 0.8931 -0.0804
vn 0.2653 0.9604 -0.0854
vn 0.0884 0.9922 -0.0879
vn -0.0879 0.9922 -0.0884
vn -0.2638 0.9606 -0.0870
vn -0.4402 0.8940 -0.0837
vn -0.6174 0.7827 -0.0785
vn 0.6211 0.7804 0.0719
vn 0.4427 0.8931 0.0804
vn 0.2653 0.9604 0.0854
vn 0.0884 0.9922 0.0879
vn -0.0879 0.9922 0.0884
vn -0.2638 0.9606 0.0870
vn -0.4402 0.8940 0.0837
vn -0.6174 0.7827 0.0785
vn 0.6121 0.7607 0.2159
vn 0.4359 0.8670 0.2414
vn 0.2612 0.9307 0.2563
vn 0.0870 0.9606 0.2638
vn -0.0854 0.9604 0.2653
vn -0.2563 0.9307 0.2612
vn -0.4275 0.8684 0.2514
vn -0.5994 0.7649 0.2359
vn 0.5904 0.7222 0.3604
vn 0.4200 0.8134 0.4026
vn 0.2514 0.8684 0.4275
vn 0.0837 0.8940 0.4402
vn -0.0804 0.8931 0.4427
vn -0.2414 0.8670 0.4359
vn -0.4026 0.8134 0.4200
vn -0.5643 0.7253 0.3944
vn 0.5552 0.6604 0.5056
vn 0.3944 0.7253 0.5643
vn 0.2359 0.7649 0.5994
vn 0.0785 0.7827 0.6174
vn -0.0719 0.7804 0.6211
vn -0.2159 0.7607 0.6121
vn -0.3604 0.7222 0.5904
vn -0.5056 0.6604 0.5552
vn 0.5056 -0.5552 -0.6604
vn 0.3604 -0.5904 -0.7222
vn 0.2159 -0.6121 -0.7607
vn 0.0719 -0.6211 -0.7804
vn -0.0785 -0.6174 -0.7827
vn -0.2359 -0.5994 -0.7649
vn -0.3944 -0.5643 -0.7253
vn -0.5552 -0.5056 -0.6604
vn 0.5643 -0.3944 -0.7253
vn 0.4026 -0.4200 -0.8134
vn 0.2414 -0.4359 -0.8670
vn 0.0804 -0.4427 -0.8931
vn -0.0837 -0.4402 -0.8940
vn -0.2514 -0.4275 -0.8684
vn -0.4200 -0.4026 -0.8134
vn -0.5904 -0.3604 -0.7222
vn 0.5994 -0.2359 -0.7649
vn 0.4275 -0.2514 -0.8684
vn 0.2563 -0.2612 -0.9307
vn 0.0854 -0.2653 -0.9604
vn -0.0870 -0.2638 -0.9606
vn -0.2612 -0.2563 -0.9307
vn -0.4359 -0.2414 -0.8670
vn -0.6121 -0.2159 -0.7607
vn 0.6174 -0.0785 -0.7827
vn 0.4402 -0.0837 -0.8940
vn 0.2638 -0.0870 -0.9606
vn 0.0879 -0.0884 -0.9922
vn -0.0884 -0.0879 -0.9922
vn -0.2653 -0.0854 -0.9604
vn -0.4427 -0.0804 -0.8931
vn -0.6211 -0.0719 -0.7804
vn 0.6174 0.0785 -0.7827
vn 0.4402 0.0837 -0.8940
vn 0.2638 0.0870 -0.9606
vn 0.0879 0.0884 -0.9922
vn -0.0884 0.0879 -0.9922
vn -0.2653 0.0854 -0.9604
vn -0.4427 0.0804 -0.8931
vn -0.6211 0.0719 -0.7804
vn 0.5994 0.2359 -0.7649
vn 0.4275 0.2514 -0.8684
vn 0.2563 0.2612 -0.9307
vn 0.0854 0.2653 -0.9604
vn -0.0870 0.2638 -0.9606
vn -0.2612 0.2563 -0.9307
vn -0.4359 0.2414 -0.8670
vn -0.6121 0.2159 -0.7607
vn 0.5643 0.3944 -0.7253
vn 0.4026 0.4200 -0.8134
vn 0.2414 0.4359 -0.8670
vn 0.0804 0.4427 -0.8931
vn -0.0837 0.4402 -0.8940
vn -0.2514 0.4275 -0.8684
vn -0.4200 0.4026 -0.8134
vn -0.5904 0.3604 -0.7222
vn 0.5056 0.5552 -0.6604
vn 0.3604 0.5904 -0.7222
vn 0.2159 0.6121 -0.7607
vn 0.0719 0.6211 -0.7804
vn -0.0785 0.6174 -0.7827
vn -0.2359 0.5994 -0.7649
vn -0.3944 0.5643 -0.7253
vn -0.5552 0.5056 -0.6604
vn -0.6604 -0.5552 -0.5056
vn -0.7222 -0.5904 -0.3604
vn -0.7607 -0.6121 -0.2159
vn -0.7804 -0.6211 -0.0719
vn -0.7827 -0.6174 0.0785
vn -0.7649 -0.5994 0.2359
vn -0.7253 -0.5643 0.3944
vn -0.6604 -0.5056 0.5552
vn -0.7253 -0.3944 -0.5643
vn -0.8134 -0.4200 -0.4026
vn -0.8670 -0.4359 -0.2414
vn -0.8931 -0.4427 -0.0804
vn -0.8940 -0.4402 0.0837
vn -0.8684 -0.4275 0.2514
vn -0.8134 -0.4026 0.4200
vn -0.7222 -0.3604 0.5904
vn -0.7649 -0.2359 -0.5994
vn -0.8684 -0.2514 -0.4275
vn -0.9307 -0.2612 -0.2563
vn -0.9604 -0.2653 -0.0854
vn -0.9606 -0.2638 0.0870
vn -0.9307 -0.2563 0.2612
vn -0.8670 -0.2414 0.4359
vn -0.7607 -0.2159 0.6121
vn -0.7827 -0.0785 -0.6174
vn -0.8940 -0.0837 -0.4402
vn -0.9606 -0.0870 -0.2638
vn -0.9922 -0.0884 -0.0879
vn -0.9922 -0.0879 0.0884
vn -0.9604 -0.0854 0.2653
vn -0.8931 -0.0804 0.4427
vn -0.7804 -0.0719 0.6211
vn -0.7827 0.0785 -0.6174
vn -0.8940 0.0837 -0.4402
vn -0.9606 0.0870 -0.2638
vn -0.9922 0.0884 -0.0879
vn -0.9922 0.0879 0.0884
vn -0.9604 0.0854 0.2653
vn -0.8931 0.0804 0.4427
vn -0.7804 0.0719 0.6211
vn -0.7649 0.2359 -0.5994
vn -0.8684 0.2514 -0.4275
vn -0.9307 0.2612 -0.2563
vn -0.9604 0.2653 -0.0854
vn -0.9606 0.2638 0.0870
vn -0.9307 0.2563 0.2612
vn -0.8670 0.2414 0.4359
vn -0.7607 0.2159 0.6121
vn -0.7253 0.3944 -0.5643
vn -0.8134 0.4200 -0.4026
vn -0.8670 0.4359 -0.2414
vn -0.8931 0.4427 -0.0804
vn -0.8940 0.4402 0.0837
vn -0.8684 0.4275 0.2514
vn -0.8134 0.4026 0.4200
vn -0.7222 0.3604 0.5904
vn -0.6604 0.5552 -0.5056
vn -0.7222 0.5904 -0.3604
vn -0.7607 0.6121 -0.2159
vn -0.7804 0.6211 -0.0719
vn -0.7827 0.6174 0.0785
vn -0.7649 0.5994 0.2359
vn -0.7253 0.5643 0.3944
vn -0.6604 0.5056 0.5552
vn -0.5056 -0.5552 0.6604
vn -0.3604 -0.5904 0.7222
vn -0.2159 -0.6121 0.7607
vn -0.0719 -0.6211 0.7804
vn 0.0785 -0.6174 0.7827
vn 0.2359 -0.5994 0.7649
vn 0.3944 -0.5643 0.7253
vn 0.5552 -0.5056 0.6604
vn -0.5643 -0.3944 0.7253
vn -0.4026 -0.4200 0.8134
vn -0.2414 -0.4359 0.8670
vn -0.0804 -0.4427 0.8931
vn 0.0837 -0.4402 0.8940
vn 0.2514 -0.4275 0.8684
vn 0.4200 -0.4026 0.8134
vn 0.5904 -0.3604 0.7222
vn -0.5994 -0.2359 0.7649
vn -0.4275 -0.2514 0.8684
vn -0.2563 -0.2612 0.9307
vn -0.0854 -0.2653 0.9604
vn 0.0870 -0.2638 0.9606
vn 0.2612 -0.2563 0.9307
vn 0.4359 -0.2414 0.8670
vn 0.6121 -0.2159 0.7607
vn -0.6174 -0.0785 0.7827
vn -0.4402 -0.0837 0.8940
vn -0.2638 -0.0870 0.9606
vn -0.0879 -0.0884 0.9922
vn 0.0884 -0.0879 0.9922
vn 0.2653 -0.0854 0.9604
vn 0.4427 -0.0804 0.8931
vn 0.6211 -0.0719 0.7804
vn -0.6174 0.0785 0.7827
vn -0.4402 0.0837 0.8940
vn -0.2638 0.0870 0.9606
vn -0.0879 0.0884 0.9922
vn 0.0884 0.0879 0.9922
vn 0.2653 0.0854 0.9604
vn 0.4427 0.0804 0.8931
vn 0.6211 0.0719 0.7804
vn -0.5994 0.2359 0.7649
vn -0.4275 0.2514 0.8684
vn -0.2563 0.2612 0.9307
vn -0.0854 0.2653 0.9604
vn 0.0870 0.2638 0.9606
vn 0.2612 0.2563 0.9307
vn 0.4359 0.2414 0.8670
vn 0.6121 0.2159 0.7607
vn -0.5643 0.3944 0.7253
vn -0.4026 0.4200 0.8134
vn -0.2414 0.4359 0.8670
vn -0.0804 0.4427 0.8931
vn 0.0837 0.4402 0.8940
vn 0.2514 0.4275 0.8684
vn 0.4200 0.4026 0.8134
vn 0.5904 0.3604 0.7222
vn -0.5056 0.5552 0.6604
vn -0.3604 0.5904 0.7222
vn -0.2159 0.6121 0.7607
vn -0.0719 0.6211 0.7804
vn 0.0785 0.6174 0.7827
vn 0.2359 0.5994 0.7649
vn 0.3944 0.5643 0.7253
vn 0.5552 0.5056 0.6604
vn 0.6604 -0.5552 0.5056
vn 0.7222 -0.5904 0.3604
vn 0.7607 -0.6121 0.2159
vn 0.7804 -0.6211 0.0719
vn 0.7827 -0.6174 -0.0785
vn 0.7649 -0.5994 -0.2359
vn 0.7253 -0.5643 -0.3944
vn 0.6604 -0.5056 -0.5552
vn 0.7253 -0.3944 0.5643
vn 0.8134 -0.4200 0.4026
vn 0.8670 -0.4359 0.2414
vn 0.8931 -0.4427 0.0804
vn 0.8940 -0.4402 -0.0837
vn 0.8684 -0.4275 -0.2514
vn 0.8134 -0.4026 -0.4200
vn 0.7222 -0.3604 -0.5904
vn 0.7649 -0.2359 0.5994
vn 0.8684 -0.2514 0.4275
vn 0.9307 -0.2612 0.2563
vn 0.9604 -0.2653 0.0854
vn 0.9606 -0.2638 -0.0870
vn 0.9307 -0.2563 -0.2612
vn 0.8670 -0.2414 -0.4359
vn 0.7607 -0.2159 -0.6121
vn 0.7827 -0.0785 0.6174
vn 0.8940 -0.0837 0.4402
vn 0.9606 -0.0870 0.2638
vn 0.9922 -0.0884 0.0879
vn 0.9922 -0.0879 -0.0884
vn 0.9604 -0.0854 -0.2653
vn 0.8931 -0.0804 -0.4427
vn 0.7804 -0.0719 -0.6211
vn 0.7827 0.0785 0.6174
vn 0.8940 0.0837 0.4402
vn 0.9606 0.0870 0.2638
vn 0.9922 0.0884 0.0879
vn 0.9922 0.0879 -0.0884
vn 0.9604 0.0854 -0.2653
vn 0.8931 0.0804 -0.4427
vn 0.7804 0.0719 -0.6211
vn 0.7649 0.2359 0.5994
vn 0.8684 0.2514 0.4275
vn 0.9307 0.2612 0.2563
vn 0.9604 0.2653 0.0854
vn 0.9606 0.2638 -0.0870
vn 0.9307 0.2563 -0.2612
vn 0.8670 0.2414 -0.4359
vn 0.7607 0.2159 -0.6121
vn 0.7253 0.3944 0.5643
vn 0.8134 0.4200 0.4026
vn 0.8670 0.4359 0.2414
vn 0.8931 0.4427 0.0804
vn 0.8940 0.4402 -0.0837
vn 0.8684 0.4275 -0.2514
vn 0.8134 0.4026 -0.4200
vn 0.7222 0.3604 -0.5904
vn 0.6604 0.5552 0.5056
vn 0.7222 0.5904 0.3604
vn 0.7607 0.6121 0.2159
vn 0.7804 0.6211 0.0719
vn 0.7827 0.6174 -0.0785
vn 0.7649 0.5994 -0.2359
vn 0.7253 0.5643 -0.3944
vn 0.6604 0.5056 -0.5552
vn 0.5056 -0.6604 0.5552
vn 0.3604 -0.7222 0.5904
vn 0.2159 -0.7607 0.6121
vn 0.0719 -0.7804 0.6211
vn -0.0785 -0.7827 0.6174
vn -0.2359 -0.7649 0.5994
vn -0.3944 -0.7253 0.5643
vn -0.5552 -0.6604 0.5056
vn 0.5643 -0.7253 0.3944
vn 0.4026 -0.8134 0.4200
vn 0.2414 -0.8670 0.4359
vn 0.0804 -0.8931 0.4427
vn -0.0837 -0.8940 0.4402
vn -0.2514 -0.8684 0.4275
vn -0.4200 -0.8134 0.4026
vn -0.5904 -0.7222 0.3604
vn 0.5994 -0.7649 0.2359
vn 0.4275 -0.8684 0.2514
vn 0.2563 -0.9307 0.2612
vn 0.0854 -0.9604 0.2653
vn -0.0870 -0.9606 0.2638
vn -0.2612 -0.9307 0.2563
vn -0.4359 -0.8670 0.2414
vn -0.6121 -0.7607 0.2159
vn 0.6174 -0.7827 0.0785
vn 0.4402 -0.8940 0.0837
vn 0.2638 -0.9606 0.0870
vn 0.0879 -0.9922 0.0884
vn -0.0884 -0.9922 0.0879
vn -0.2653 -0.9604 0.0854
vn -0.4427 -0.8931 0.0804
vn -0.6211 -0.7804 0.0719
vn 0.6174 -0.7827 -0.0785
vn 0.4402 -0.8940 -0.0837
vn 0.2638 -0.9606 -0.0870
vn 0.0879 -0.9922 -0.0884
vn -0.0884 -0.9922 -0.0879
vn -0.2653 -0.9604 -0.0854
vn -0.4427 -0.8931 -0.0804
vn -0.6211 -0.7804 -0.0719
vn 0.5994 -0.7649 -0.2359
vn 0.4275 -0.8684 -0.2514
vn 0.2563 -0.9307 -0.2612
vn 0.0854 -0.9604 -0.2653
vn -0.0870 -0.9606 -0.2638
vn -0.2612 -0.9307 -0.2563
vn -0.4359 -0.8670 -0.2414
vn -0.6121 -0.7607 -0.2159
vn 0.5643 -0.7253 -0.3944
vn 0.4026 -0.8134 -0.4200
vn 0.2414 -0.8670 -0.4359
vn 0.0804 -0.8931 -0.4427
vn -0.0837 -0.8940 -0.4402
vn -0.2514 -0.8684 -0.4275
vn -0.4200 -0.8134 -0.4026
vn -0.5904 -0.7222 -0.3604
vn 0.5056 -0.6604 -0.5552
vn 0.3604 -0.7222 -0.5904
vn 0.2159 -0.7607 -0.6121
vn 0.0719 -0.7804 -0.6211
vn -0.0785 -0.7827 -0.6174
vn -0.2359 -0.7649 -0.5994
vn -0.3944 -0.7253 -0.5643
vn -0.5552 -0.6604 -0.5056
vn 0.5056 0.6604 -0.5552
vn 0.3604 0.7222 -0.5904
vn 0.2159 0.7607 -0.6121
vn 0.0719 0.7804 -0.6211
vn -0.0785 0.7827 -0.6174
vn -0.2359 0.7649 -0.5994
vn -0.3944 0.7253 -0.5643
vn -0.5552 0.6604 -0.5056
vn 0.5643 0.7253 -0.3944
vn 0.4026 0.8134 -0.4200
vn 0.2414 0.8670 -0.4359
vn 0.0804 0.8931 -0.4427
vn -0.0837 0.8940 -0.4402
vn -0.2514 0.8684 -0.4275
vn -0.4200 0.8134 -0.4026
vn -0.5904 0.7222 -0.3604
vn 0.5994 0.7649 -0.2359
vn 0.4275 0.8684 -0.2514
vn 0.2563 0.9307 -0.2612
vn 0.0854 0.9604 -0.2653
vn -0.0870 0.9606 -0.2638
vn -0.2612 0.9307 -0.2563
vn -0.4359 0.8670 -0.2414
vn -0.6121 0.7607 -0.2159
vn 0.6174 0.7827 -0.0785
vn 0.4402 0.8940 -0.0837
vn 0.2638 0.9606 -0.0870
vn 0.0879 0.9922 -0.0884
vn -0.0884 0.9922 -0.0879
vn -0.2653 0.9604 -0.0854
vn -0.4427 0.8931 -0.0804
vn -0.6211 0.7804 -0.0719
vn 0.6174 0.7827 0.0785
vn 0.4402 0.8940 0.0837
vn 0.2638 0.9606 0.0870
vn 0.0879 0.9922 0.0884
vn -0.0884 0.9922 0.0879
vn -0.2653 0.9604 0.0854
vn -0.4427 0.8931 0.0804
vn -0.6211 0.7804 0.0719
vn 0.5994 0.7649 0.2359
vn 0.4275 0.8684 0.2514
vn 0.2563 0.9307 0.2612
vn 0.0854 0.9604 0.2653
vn -0.0870 0.9606 0.2638
vn -0.2612 0.9307 0.2563
vn -0.4359 0.8670 0.2414
vn -0.6121 0.7607 0.2159
vn 0.5643 0.7253 0.3944
vn 0.4026 0.8134 0.4200
vn 0.2414 0.8670 0.4359
vn 0.0804 0.8931 0.4427
vn -0.0837 0.8940 0.4402
vn -0.2514 0.8684 0.4275
vn -0.4200 0.8134 0.4026
vn -0.5904 0.7222 0.3604
vn 0.5056 0.6604 0.5552
vn 0.3604 0.7222 0.5904
vn 0.2159 0.7607 0.6121
vn 0.0719 0.7804 0.6211
vn -0.0785 0.7827 0.6174
vn -0.2359 0.7649 0.5994
vn -0.3944 0.7253 0.5643
vn -0.5552 0.6604 0.5056
vt 0.716506 0.211325
vt 0.679262 0.260983
vt 0.739017 0.283494
vt 0.662380 0.181311
vt 0.619508 0.246124
vt 0.608253 0.161498
vt 0.559754 0.237612
vt 0.554127 0.150149
vt 0.500000 0.234835
vt 0.445873 0.150149
vt 0.500000 0.146447
vt 0.391747 0.161498
vt 0.440246 0.237612
vt 0.337620 0.181311
vt 0.380492 0.246124
vt 0.283494 0.211325
vt 0.320738 0.260983
vt 0.690407 0.340656
vt 0.753876 0.355662
vt 0.626938 0.330749
vt 0.563469 0.325074
vt 0.500000 0.323223
vt 0.436531 0.325074
vt 0.373062 0.330749
vt 0.260983 0.283494
vt 0.309593 0.340656
vt 0.696791 0.420328
vt 0.762388 0.427831
vt 0.631194 0.415375
vt 0.565597 0.412537
vt 0.500000 0.411612
vt 0.434403 0.412537
vt 0.368806 0.415375
vt 0.246124 0.355662
vt 0.303209 0.420328
vt 0.698874 0.500000
vt 0.765165 0.500000
vt 0.632583 0.500000
vt 0.566291 0.500000
vt 0.500000 0.500000
vt 0.433709 0.500000
vt 0.367417 0.500000
vt 0.237612 0.427831
vt 0.301126 0.500000
vt 0.762388 0.572169
vt 0.696791 0.579672
vt 0.631194 0.584625
vt 0.565597 0.587463
vt 0.434403 0.587463
vt 0.500000 0.588388
vt 0.368806 0.584625
vt 0.303209 0.579672
vt 0.237612 0.572169
vt 0.753876 0.644338
vt 0.690407 0.659344
vt 0.626938 0.669251
vt 0.563469 0.674926
vt 0.436531 0.674926
vt 0.500000 0.676777
vt 0.373062 0.669251
vt 0.309593 0.659344
vt 0.246124 0.644338
vt 0.739017 0.716506
vt 0.679262 0.739017
vt 0.619508 0.753876
vt 0.559754 0.762388
vt 0.440246 0.762388
vt 0.500000 0.765165
vt 0.380492 0.753876
vt 0.320738 0.739017
vt 0.260983 0.716506
vt 0.716506 0.788675
vt 0.662380 0.818689
vt 0.608253 0.838502
vt 0.554127 0.849851
vt 0.445873 0.849851
vt 0.500000 0.853553
vt 0.391747 0.838502
vt 0.337620 0.818689
vt 0.283494 0.788675
vt 0.234835 0.500000
s 0
f 1/1/1 10/2/1 9/3/1
f 2/4/2 11/5/2 10/2/2
f 3/6/3 12/7/3 11/5/3
f 4/8/4 13/9/4 12/7/4
f 6/10/5 13/9/5 5/11/5
f 7/12/6 14/13/6 6/10/6
f 8/14/7 15/15/7 7/12/7
f 65/16/8 16/17/8 8/14/8
f 9/3/9 18/18/9 17/19/9
f 10/2/10 19/20/10 18/18/10
f 11/5/11 20/21/11 19/20/11
f 12/7/12 21/22/12 20/21/12
f 14/13/13 21/22/13 13/9/13
f 15/15/14 22/23/14 14/13/14
f 16/17/15 23/24/15 15/15/15
f 73/25/16 24/26/16 16/17/16
f 17/19/17 26/27/17 25/28/17
f 18/18/18 27/29/18 26/27/18
f 19/20/19 28/30/19 27/29/19
f 20/21/20 29/31/20 28/30/20
f 22/23/21 29/31/21 21/22/21
f 23/24/22 30/32/22 22/23/22
f 24/26/23 31/33/23 23/24/23
f 81/34/24 32/35/24 24/26/24
f 25/28/25 34/36/25 33/37/25
f 26/27/26 35/38/26 34/36/26
f 27/29/27 36/39/27 35/38/27
f 28/30/28 37/40/28 36/39/28
f 30/32/29 37/40/29 29/31/29
f 31/33/30 38/41/30 30/32/30
f 32/35/31 39/42/31 31/33/31
f 89/43/32 40/44/32 32/35/32
f 34/36/33 41/45/33 33/37/33
f 35/38/34 42/46/34 34/36/34
f 36/39/35 43/47/35 35/38/35
f 37/40/36 44/48/36 36/39/36
f 37/40/37 46/49/37 45/50/37
f 38/41/38 47/51/38 46/49/38
f 39/42/39 48/52/39 47/51/39
f 40/44/40 105/53/40 48/52/40
f 42/46/41 49/54/41 41/45/41
f 43/47/42 50/55/42 42/46/42
f 44/48/43 51/56/43 43/47/43
f 45/50/44 52/57/44 44/48/44
f 45/50/45 54/58/45 53/59/45
f 46/49/46 55/60/46 54/58/46
f 47/51/47 56/61/47 55/60/47
f 48/52/48 113/62/48 56/61/48
f 50/55/49 57/63/49 49/54/49
f 51/56/50 58/64/50 50/55/50
f 52/57/51 59/65/51 51/56/51
f 53/59/52 60/66/52 52/57/52
f 53/59/53 62/67/53 61/68/53
f 54/58/54 63/69/54 62/67/54
f 55/60/55 64/70/55 63/69/55
f 56/61/56 121/71/56 64/70/56
f 58/64/57 306/72/57 57/63/57
f 59/65/58 307/73/58 58/64/58
f 60/66/59 308/74/59 59/65/59
f 61/68/60 309/75/60 60/66/60
f 61/68/61 311/76/61 310/77/61
f 62/67/62 312/78/62 311/76/62
f 63/69/63 313/79/63 312/78/63
f 64/70/64 314/80/64 313/79/64
f 65/1/65 74/2/65 73/3/65
f 66/4/66 75/5/66 74/2/66
f 67/6/67 76/7/67 75/5/67
f 68/8/68 77/9/68 76/7/68
f 70/10/69 77/9/69 69/11/69
f 71/12/70 78/13/70 70/10/70
f 72/14/71 79/15/71 71/12/71
f 129/16/72 80/17/72 72/14/72
f 73/3/73 82/18/73 81/19/73
f 74/2/74 83/20/74 82/18/74
f 75/5/75 84/21/75 83/20/75
f 76/7/76 85/22/76 84/21/76
f 78/13/77 85/22/77 77/9/77
f 79/15/78 86/23/78 78/13/78
f 80/17/79 87/24/79 79/15/79
f 137/25/80 88/26/80 80/17/80
f 81/19/81 90/27/81 89/28/81
f 82/18/82 91/29/82 90/27/82
f 83/20/83 92/30/83 91/29/83
f 84/21/84 93/31/84 92/30/84
f 86/23/85 93/31/85 85/22/85
f 87/24/86 94/32/86 86/23/86
f 88/26/87 95/33/87 87/24/87
f 145/34/88 96/35/88 88/26/88
f 89/28/89 98/36/89 97/37/89
f 90/27/90 99/38/90 98/36/90
f 91/29/91 100/39/91 99/38/91
f 92/30/92 101/40/92 100/39/92
f 94/32/93 101/40/93 93/31/93
f 95/33/94 102/41/94 94/32/94
f 96/35/95 103/42/95 95/33/95
f 153/43/96 104/44/96 96/35/96
f 98/36/97 105/45/97 97/37/97
f 99/38/98 106/46/98 98/36/98
f 100/39/99 107/47/99 99/38/99
f 101/40/100 108/48/100 100/39/100
f 101/40/101 110/49/101 109/50/101
f 102/41/102 111/51/102 110/49/102
f 103/42/103 112/52/103 111/51/103
f 104/44/104 169/53/104 112/52/104
f 106/46/105 113/54/105 105/45/105
f 107/47/106 114/55/106 106/46/106
f 108/48/107 115/56/107 107/47/107
f 109/50/108 116/57/108 108/48/108
f 109/50/109 118/58/109 117/59/109
f 110/49/110 119/60/110 118/58/110
f 111/51/111 120/61/111 119/60/111
f 112/52/112 177/62/112 120/61/112
f 114/55/113 121/63/113 113/54/113
f 115/56/114 122/64/114 114/55/114
f 116/57/115 123/65/115 115/56/115
f 117/59/116 124/66/116 116/57/116
f 117/59/117 126/67/117 125/68/117
f 118/58/118 127/69/118 126/67/118
f 119/60/119 128/70/119 127/69/119
f 120/61/120 185/71/120 128/70/120
f 122/64/121 314/72/121 121/63/121
f 123/65/122 323/73/122 122/64/122
f 124/66/123 332/74/123 123/65/123
f 125/68/124 341/75/124 124/66/124
f 125/68/125 359/76/125 350/77/125
f 126/67/126 368/78/126 359/76/126
f 127/69/127 377/79/127 368/78/127
f 128/70/128 386/80/128 377/79/128
f 129/16/129 138/17/129 137/25/129
f 130/14/130 139/15/130 138/17/130
f 131/12/131 140/13/131 139/15/131
f 132/10/132 141/9/132 140/13/132
f 134/8/133 141/9/133 133/11/133
f 135/6/134 142/7/134 134/8/134
f 136/4/135 143/5/135 135/6/135
f 193/1/136 144/2/136 136/4/136
f 137/25/137 146/26/137 145/34/137
f 138/17/138 147/24/138 146/26/138
f 139/15/139 148/23/139 147/24/139
f 140/13/140 149/22/140 148/23/140
f 142/7/141 149/22/141 141/9/141
f 143/5/142 150/21/142 142/7/142
f 144/2/143 151/20/143 143/5/143
f 201/3/144 152/18/144 144/2/144
f 145/34/145 154/35/145 153/43/145
f 146/26/146 155/33/146 154/35/146
f 147/24/147 156/32/147 155/33/147
f 148/23/148 157/31/148 156/32/148
f 150/21/149 157/31/149 149/22/149
f 151/20/150 158/30/150 150/21/150
f 152/18/151 159/29/151 151/20/151
f 209/19/152 160/27/152 152/18/152
f 153/43/153 162/44/153 161/81/153
f 154/35/154 163/42/154 162/44/154
f 155/33/155 164/41/155 163/42/155
f 156/32/156 165/40/156 164/41/156
f 158/30/157 165/40/157 157/31/157
f 159/29/158 166/39/158 158/30/158
f 160/27/159 167/38/159 159/29/159
f 217/28/160 168/36/160 160/27/160
f 162/44/161 169/53/161 161/81/161
f 163/42/162 170/52/162 162/44/162
f 164/41/163 171/51/163 163/42/163
f 165/40/164 172/49/164 164/41/164
f 165/40/165 174/48/165 173/50/165
f 166/39/166 175/47/166 174/48/166
f 167/38/167 176/46/167 175/47/167
f 168/36/168 233/45/168 176/46/168
f 170/52/169 177/62/169 169/53/169
f 171/51/170 178/61/170 170/52/170
f 172/49/171 179/60/171 171/51/171
f 173/50/172 180/58/172 172/49/172
f 173/50/173 182/57/173 181/59/173
f 174/48/174 183/56/174 182/57/174
f 175/47/175 184/55/175 183/56/175
f 176/46/176 241/54/176 184/55/176
f 178/61/177 185/71/177 177/62/177
f 179/60/178 186/70/178 178/61/178
f 180/58/179 187/69/179 179/60/179
f 181/59/180 188/67/180 180/58/180
f 181/59/181 190/66/181 189/68/181
f 182/57/182 191/65/182 190/66/182
f 183/56/183 192/64/183 191/65/183
f 184/55/184 249/63/184 192/64/184
f 186/70/185 386/80/185 185/71/185
f 187/69/186 385/79/186 186/70/186
f 188/67/187 384/78/187 187/69/187
f 189/68/188 383/76/188 188/67/188
f 189/68/189 381/75/189 382/77/189
f 190/66/190 380/74/190 381/75/190
f 191/65/191 379/73/191 380/74/191
f 192/64/192 378/72/192 379/73/192
f 193/16/193 202/17/193 201/25/193
f 194/14/194 203/15/194 202/17/194
f 195/12/195 204/13/195 203/15/195
f 196/10/196 205/9/196 204/13/196
f 198/8/197 205/9/197 197/11/197
f 199/6/198 206/7/198 198/8/198
f 200/4/199 207/5/199 199/6/199
f 1/1/200 208/2/200 200/4/200
f 201/25/201 210/26/201 209/34/201
f 202/17/202 211/24/202 210/26/202
f 203/15/203 212/23/203 211/24/203
f 204/13/204 213/22/204 212/23/204
f 206/7/205 213/22/205 205/9/205
f 207/5/206 214/21/206 206/7/206
f 208/2/207 215/20/207 207/5/207
f 9/3/208 216/18/208 208/2/208
f 209/34/209 218/35/209 217/43/209
f 210/26/210 219/33/210 218/35/210
f 211/24/211 220/32/211 219/33/211
f 212/23/212 221/31/212 220/32/212
f 214/21/213 221/31/213 213/22/213
f 215/20/214 222/30/214 214/21/214
f 216/18/215 223/29/215 215/20/215
f 17/19/216 224/27/216 216/18/216
f 217/43/217 226/44/217 225/81/217
f 218/35/218 227/42/218 226/44/218
f 219/33/219 228/41/219 227/42/219
f 220/32/220 229/40/220 228/41/220
f 222/30/221 229/40/221 221/31/221
f 223/29/222 230/39/222 222/30/222
f 224/27/223 231/38/223 223/29/223
f 25/28/224 232/36/224 224/27/224
f 226/44/225 233/53/225 225/81/225
f 227/42/226 234/52/226 226/44/226
f 228/41/227 235/51/227 227/42/227
f 229/40/228 236/49/228 228/41/228
f 229/40/229 238/48/229 237/50/229
f 230/39/230 239/47/230 238/48/230
f 231/38/231 240/46/231 239/47/231
f 232/36/232 41/45/232 240/46/232
f 234/52/233 241/62/233 233/53/233
f 235/51/234 242/61/234 234/52/234
f 236/49/235 243/60/235 235/51/235
f 237/50/236 244/58/236 236/49/236
f 237/50/237 246/57/237 245/59/237
f 238/48/238 247/56/238 246/57/238
f 239/47/239 248/55/239 247/56/239
f 240/46/240 49/54/240 248/55/240
f 242/61/241 249/71/241 241/62/241
f 243/60/242 250/70/242 242/61/242
f 244/58/243 251/69/243 243/60/243
f 245/59/244 252/67/244 244/58/244
f 245/59/245 254/66/245 253/68/245
f 246/57/246 255/65/246 254/66/246
f 247/56/247 256/64/247 255/65/247
f 248/55/248 57/63/248 256/64/248
f 250/70/249 378/80/249 249/71/249
f 251/69/250 369/79/250 250/70/250
f 252/67/251 360/78/251 251/69/251
f 253/68/252 351/76/252 252/67/252
f 253/68/253 333/75/253 342/77/253
f 254/66/254 324/74/254 333/75/254
f 255/65/255 315/73/255 324/74/255
f 256/64/256 306/72/256 315/73/256
f 193/1/257 257/2/257 194/3/257
f 136/4/258 258/5/258 257/2/258
f 135/6/259 259/7/259 258/5/259
f 134/8/260 260/9/260 259/7/260
f 132/10/261 260/9/261 133/11/261
f 131/12/262 261/13/262 132/10/262
f 130/14/263 262/15/263 131/12/263
f 129/16/264 263/17/264 130/14/264
f 194/3/265 264/18/265 195/19/265
f 257/2/266 265/20/266 264/18/266
f 258/5/267 266/21/267 265/20/267
f 259/7/268 267/22/268 266/21/268
f 261/13/269 267/22/269 260/9/269
f 262/15/270 268/23/270 261/13/270
f 263/17/271 269/24/271 262/15/271
f 72/25/272 270/26/272 263/17/272
f 195/19/273 271/27/273 196/28/273
f 264/18/274 272/29/274 271/27/274
f 265/20/275 273/30/275 272/29/275
f 266/21/276 274/31/276 273/30/276
f 268/23/277 274/31/277 267/22/277
f 269/24/278 275/32/278 268/23/278
f 270/26/279 276/33/279 269/24/279
f 71/34/280 277/35/280 270/26/280
f 196/28/281 278/36/281 197/37/281
f 271/27/282 279/38/282 278/36/282
f 272/29/283 280/39/283 279/38/283
f 273/30/284 281/40/284 280/39/284
f 275/32/285 281/40/285 274/31/285
f 276/33/286 282/41/286 275/32/286
f 277/35/287 283/42/287 276/33/287
f 70/43/288 284/44/288 277/35/288
f 278/36/289 198/45/289 197/37/289
f 279/38/290 285/46/290 278/36/290
f 280/39/291 286/47/291 279/38/291
f 281/40/292 287/48/292 280/39/292
f 281/40/293 289/49/293 288/50/293
f 282/41/294 290/51/294 289/49/294
f 283/42/295 291/52/295 290/51/295
f 284/44/296 68/53/296 291/52/296
f 285/46/297 199/54/297 198/45/297
f 286/47/298 292/55/298 285/46/298
f 287/48/299 293/56/299 286/47/299
f 288/50/300 294/57/300 287/48/300
f 288/50/301 296/58/301 295/59/301
f 289/49/302 297/60/302 296/58/302
f 290/51/303 298/61/303 297/60/303
f 291/52/304 67/62/304 298/61/304
f 292/55/305 200/63/305 199/54/305
f 293/56/306 299/64/306 292/55/306
f 294/57/307 300/65/307 293/56/307
f 295/59/308 301/66/308 294/57/308
f 295/59/309 303/67/309 302/68/309
f 296/58/310 304/69/310 303/67/310
f 297/60/311 305/70/311 304/69/311
f 298/61/312 66/71/312 305/70/312
f 299/64/313 1/72/313 200/63/313
f 300/65/314 2/73/314 299/64/314
f 301/66/315 3/74/315 300/65/315
f 302/68/316 4/75/316 301/66/316
f 302/68/317 6/76/317 5/77/317
f 303/67/318 7/78/318 6/76/318
f 304/69/319 8/79/319 7/78/319
f 305/70/320 65/80/320 8/79/320
f 306/72/321 316/64/321 315/63/321
f 307/73/322 317/65/322 316/64/322
f 308/74/323 318/66/323 317/65/323
f 309/75/324 319/68/324 318/66/324
f 311/76/325 319/68/325 310/77/325
f 312/78/326 320/67/326 311/76/326
f 313/79/327 321/69/327 312/78/327
f 314/80/328 322/70/328 313/79/328
f 315/63/329 325/55/329 324/54/329
f 316/64/330 326/56/330 325/55/330
f 317/65/331 327/57/331 326/56/331
f 318/66/332 328/59/332 327/57/332
f 320/67/333 328/59/333 319/68/333
f 321/69/334 329/58/334 320/67/334
f 322/70/335 330/60/335 321/69/335
f 323/71/336 331/61/336 322/70/336
f 324/54/337 334/46/337 333/45/337
f 325/55/338 335/47/338 334/46/338
f 326/56/339 336/48/339 335/47/339
f 327/57/340 337/50/340 336/48/340
f 329/58/341 337/50/341 328/59/341
f 330/60/342 338/49/342 329/58/342
f 331/61/343 339/51/343 330/60/343
f 332/62/344 340/52/344 331/61/344
f 333/45/345 343/36/345 342/37/345
f 334/46/346 344/38/346 343/36/346
f 335/47/347 345/39/347 344/38/347
f 336/48/348 346/40/348 345/39/348
f 338/49/349 346/40/349 337/50/349
f 339/51/350 347/41/350 338/49/350
f 340/52/351 348/42/351 339/51/351
f 341/53/352 349/44/352 340/52/352
f 343/36/353 351/28/353 342/37/353
f 344/38/354 352/27/354 343/36/354
f 345/39/355 353/29/355 344/38/355
f 346/40/356 354/30/356 345/39/356
f 346/40/357 356/32/357 355/31/357
f 347/41/358 357/33/358 356/32/358
f 348/42/359 358/35/359 357/33/359
f 349/44/360 359/43/360 358/35/360
f 352/27/361 360/19/361 351/28/361
f 353/29/362 361/18/362 352/27/362
f 354/30/363 362/20/363 353/29/363
f 355/31/364 363/21/364 354/30/364
f 355/31/365 365/23/365 364/22/365
f 356/32/366 366/24/366 365/23/366
f 357/33/367 367/26/367 366/24/367
f 358/35/368 368/34/368 367/26/368
f 361/18/369 369/3/369 360/19/369
f 362/20/370 370/2/370 361/18/370
f 363/21/371 371/5/371 362/20/371
f 364/22/372 372/7/372 363/21/372
f 364/22/373 374/13/373 373/9/373
f 365/23/374 375/15/374 374/13/374
f 366/24/375 376/17/375 375/15/375
f 367/26/376 377/25/376 376/17/376
f 370/2/377 378/1/377 369/3/377
f 371/5/378 379/4/378 370/2/378
f 372/7/379 380/6/379 371/5/379
f 373/9/380 381/8/380 372/7/380
f 373/9/381 383/10/381 382/11/381
f 374/13/382 384/12/382 383/10/382
f 375/15/383 385/14/383 384/12/383
f 376/17/384 386/16/384 385/14/384
f 1/1/385 2/4/385 10/2/385
f 2/4/386 3/6/386 11/5/386
f 3/6/387 4/8/387 12/7/387
f 4/8/388 5/11/388 13/9/388
f 6/10/389 14/13/389 13/9/389
f 7/12/390 15/15/390 14/13/390
f 8/14/391 16/17/391 15/15/391
f 65/16/392 73/25/392 16/17/392
f 9/3/393 10/2/393 18/18/393
f 10/2/394 11/5/394 19/20/394
f 11/5/395 12/7/395 20/21/395
f 12/7/396 13/9/396 21/22/396
f 14/13/397 22/23/397 21/22/397
f 15/15/398 23/24/398 22/23/398
f 16/17/399 24/26/399 23/24/399
f 73/25/400 81/34/400 24/26/400
f 17/19/401 18/18/401 26/27/401
f 18/18/402 19/20/402 27/29/402
f 19/20/403 20/21/403 28/30/403
f 20/21/404 21/22/404 29/31/404
f 22/23/405 30/32/405 29/31/405
f 23/24/406 31/33/406 30/32/406
f 24/26/407 32/35/407 31/33/407
f 81/34/408 89/43/408 32/35/408
f 25/28/409 26/27/409 34/36/409
f 26/27/410 27/29/410 35/38/410
f 27/29/411 28/30/411 36/39/411
f 28/30/412 29/31/412 37/40/412
f 30/32/413 38/41/413 37/40/413
f 31/33/414 39/42/414 38/41/414
f 32/35/415 40/44/415 39/42/415
f 89/43/416 97/81/416 40/44/416
f 34/36/417 42/46/417 41/45/417
f 35/38/418 43/47/418 42/46/418
f 36/39/419 44/48/419 43/47/419
f 37/40/420 45/50/420 44/48/420
f 37/40/421 38/41/421 46/49/421
f 38/41/422 39/42/422 47/51/422
f 39/42/423 40/44/423 48/52/423
f 40/44/424 97/81/424 105/53/424
f 42/46/425 50/55/425 49/54/425
f 43/47/426 51/56/426 50/55/426
f 44/48/427 52/57/427 51/56/427
f 45/50/428 53/59/428 52/57/428
f 45/50/429 46/49/429 54/58/429
f 46/49/430 47/51/430 55/60/430
f 47/51/431 48/52/431 56/61/431
f 48/52/432 105/53/432 113/62/432
f 50/55/433 58/64/433 57/63/433
f 51/56/434 59/65/434 58/64/434
f 52/57/435 60/66/435 59/65/435
f 53/59/436 61/68/436 60/66/436
f 53/59/437 54/58/437 62/67/437
f 54/58/438 55/60/438 63/69/438
f 55/60/439 56/61/439 64/70/439
f 56/61/440 113/62/440 121/71/440
f 58/64/441 307/73/441 306/72/441
f 59/65/442 308/74/442 307/73/442
f 60/66/443 309/75/443 308/74/443
f 61/68/444 310/77/444 309/75/444
f 61/68/445 62/67/445 311/76/445
f 62/67/446 63/69/446 312/78/446
f 63/69/447 64/70/447 313/79/447
f 64/70/448 121/71/448 314/80/448
f 65/1/449 66/4/449 74/2/449
f 66/4/450 67/6/450 75/5/450
f 67/6/451 68/8/451 76/7/451
f 68/8/452 69/11/452 77/9/452
f 70/10/453 78/13/453 77/9/453
f 71/12/454 79/15/454 78/13/454
f 72/14/455 80/17/455 79/15/455
f 129/16/456 137/25/456 80/17/456
f 73/3/457 74/2/457 82/18/457
f 74/2/458 75/5/458 83/20/458
f 75/5/459 76/7/459 84/21/459
f 76/7/460 77/9/460 85/22/460
f 78/13/461 86/23/461 85/22/461
f 79/15/462 87/24/462 86/23/462
f 80/17/463 88/26/463 87/24/463
f 137/25/464 145/34/464 88/26/464
f 81/19/465 82/18/465 90/27/465
f 82/18/466 83/20/466 91/29/466
f 83/20/467 84/21/467 92/30/467
f 84/21/468 85/22/468 93/31/468
f 86/23/469 94/32/469 93/31/469
f 87/24/470 95/33/470 94/32/470
f 88/26/471 96/35/471 95/33/471
f 145/34/472 153/43/472 96/35/472
f 89/28/473 90/27/473 98/36/473
f 90/27/474 91/29/474 99/38/474
f 91/29/475 92/30/475 100/39/475
f 92/30/476 93/31/476 101/40/476
f 94/32/477 102/41/477 101/40/477
f 95/33/478 103/42/478 102/41/478
f 96/35/479 104/44/479 103/42/479
f 153/43/480 161/81/480 104/44/480
f 98/36/481 106/46/481 105/45/481
f 99/38/482 107/47/482 106/46/482
f 100/39/483 108/48/483 107/47/483
f 101/40/484 109/50/484 108/48/484
f 101/40/485 102/41/485 110/49/485
f 102/41/486 103/42/486 111/51/486
f 103/42/487 104/44/487 112/52/487
f 104/44/488 161/81/488 169/53/488
f 106/46/489 114/55/489 113/54/489
f 107/47/490 115/56/490 114/55/490
f 108/48/491 116/57/491 115/56/491
f 109/50/492 117/59/492 116/57/492
f 109/50/493 110/49/493 118/58/493
f 110/49/494 111/51/494 119/60/494
f 111/51/495 112/52/495 120/61/495
f 112/52/496 169/53/496 177/62/496
f 114/55/497 122/64/497 121/63/497
f 115/56/498 123/65/498 122/64/498
f 116/57/499 124/66/499 123/65/499
f 117/59/500 125/68/500 124/66/500
f 117/59/501 118/58/501 126/67/501
f 118/58/502 119/60/502 127/69/502
f 119/60/503 120/61/503 128/70/503
f 120/61/504 177/62/504 185/71/504
f 122/64/505 323/73/505 314/72/505
f 123/65/506 332/74/506 323/73/506
f 124/66/507 341/75/507 332/74/507
f 125/68/508 350/77/508 341/75/508
f 125/68/509 126/67/509 359/76/509
f 126/67/510 127/69/510 368/78/510
f 127/69/511 128/70/511 377/79/511
f 128/70/512 185/71/512 386/80/512
f 129/16/513 130/14/513 138/17/513
f 130/14/514 131/12/514 139/15/514
f 131/12/515 132/10/515 140/13/515
f 132/10/516 133/11/516 141/9/516
f 134/8/517 142/7/517 141/9/517
f 135/6/518 143/5/518 142/7/518
f 136/4/519 144/2/519 143/5/519
f 193/1/520 201/3/520 144/2/520
f 137/25/521 138/17/521 146/26/521
f 138/17/522 139/15/522 147/24/522
f 139/15/523 140/13/523 148/23/523
f 140/13/524 141/9/524 149/22/524
f 142/7/525 150/21/525 149/22/525
f 143/5/526 151/20/526 150/21/526
f 144/2/527 152/18/527 151/20/527
f 201/3/528 209/19/528 152/18/528
f 145/34/529 146/26/529 154/35/529
f 146/26/530 147/24/530 155/33/530
f 147/24/531 148/23/531 156/32/531
f 148/23/532 149/22/532 157/31/532
f 150/21/533 158/30/533 157/31/533
f 151/20/534 159/29/534 158/30/534
f 152/18/535 160/27/535 159/29/535
f 209/19/536 217/28/536 160/27/536
f 153/43/537 154/35/537 162/44/537
f 154/35/538 155/33/538 163/42/538
f 155/33/539 156/32/539 164/41/539
f 156/32/540 157/31/540 165/40/540
f 158/30/541 166/39/541 165/40/541
f 159/29/542 167/38/542 166/39/542
f 160/27/543 168/36/543 167/38/543
f 217/28/544 225/37/544 168/36/544
f 162/44/545 170/52/545 169/53/545
f 163/42/546 171/51/546 170/52/546
f 164/41/547 172/49/547 171/51/547
f 165/40/548 173/50/548 172/49/548
f 165/40/549 166/39/549 174/48/549
f 166/39/550 167/38/550 175/47/550
f 167/38/551 168/36/551 176/46/551
f 168/36/552 225/37/552 233/45/552
f 170/52/553 178/61/553 177/62/553
f 171/51/554 179/60/554 178/61/554
f 172/49/555 180/58/555 179/60/555
f 173/50/556 181/59/556 180/58/556
f 173/50/557 174/48/557 182/57/557
f 174/48/558 175/47/558 183/56/558
f 175/47/559 176/46/559 184/55/559
f 176/46/560 233/45/560 241/54/560
f 178/61/561 186/70/561 185/71/561
f 179/60/562 187/69/562 186/70/562
f 180/58/563 188/67/563 187/69/563
f 181/59/564 189/68/564 188/67/564
f 181/59/565 182/57/565 190/66/565
f 182/57/566 183/56/566 191/65/566
f 183/56/567 184/55/567 192/64/567
f 184/55/568 241/54/568 249/63/568
f 186/70/569 385/79/569 386/80/569
f 187/69/570 384/78/570 385/79/570
f 188/67/571 383/76/571 384/78/571
f 189/68/572 382/77/572 383/76/572
f 189/68/573 190/66/573 381/75/573
f 190/66/574 191/65/574 380/74/574
f 191/65/575 192/64/575 379/73/575
f 192/64/576 249/63/576 378/72/576
f 193/16/577 194/14/577 202/17/577
f 194/14/578 195/12/578 203/15/578
f 195/12/579 196/10/579 204/13/579
f 196/10/580 197/11/580 205/9/580
f 198/8/581 206/7/581 205/9/581
f 199/6/582 207/5/582 206/7/582
f 200/4/583 208/2/583 207/5/583
f 1/1/584 9/3/584 208/2/584
f 201/25/585 202/17/585 210/26/585
f 202/17/586 203/15/586 211/24/586
f 203/15/587 204/13/587 212/23/587
f 204/13/588 205/9/588 213/22/588
f 206/7/589 214/21/589 213/22/589
f 207/5/590 215/20/590 214/21/590
f 208/2/591 216/18/591 215/20/591
f 9/3/592 17/19/592 216/18/592
f 209/34/593 210/26/593 218/35/593
f 210/26/594 211/24/594 219/33/594
f 211/24/595 212/23/595 220/32/595
f 212/23/596 213/22/596 221/31/596
f 214/21/597 222/30/597 221/31/597
f 215/20/598 223/29/598 222/30/598
f 216/18/599 224/27/599 223/29/599
f 17/19/600 25/28/600 224/27/600
f 217/43/601 218/35/601 226/44/601
f 218/35/602 219/33/602 227/42/602
f 219/33/603 220/32/603 228/41/603
f 220/32/604 221/31/604 229/40/604
f 222/30/605 230/39/605 229/40/605
f 223/29/606 231/38/606 230/39/606
f 224/27/607 232/36/607 231/38/607
f 25/28/608 33/37/608 232/36/608
f 226/44/609 234/52/609 233/53/609
f 227/42/610 235/51/610 234/52/610
f 228/41/611 236/49/611 235/51/611
f 229/40/612 237/50/612 236/49/612
f 229/40/613 230/39/613 238/48/613
f 230/39/614 231/38/614 239/47/614
f 231/38/615 232/36/615 240/46/615
f 232/36/616 33/37/616 41/45/616
f 234/52/617 242/61/617 241/62/617
f 235/51/618 243/60/618 242/61/618
f 236/49/619 244/58/619 243/60/619
f 237/50/620 245/59/620 244/58/620
f 237/50/621 238/48/621 246/57/621
f 238/48/622 239/47/622 247/56/622
f 239/47/623 240/46/623 248/55/623
f 240/46/624 41/45/624 49/54/624
f 242/61/625 250/70/625 249/71/625
f 243/60/626 251/69/626 250/70/626
f 244/58/627 252/67/627 251/69/627
f 245/59/628 253/68/628 252/67/628
f 245/59/629 246/57/629 254/66/629
f 246/57/630 247/56/630 255/65/630
f 247/56/631 248/55/631 256/64/631
f 248/55/632 49/54/632 57/63/632
f 250/70/633 369/79/633 378/80/633
f 251/69/634 360/78/634 369/79/634
f 252/67/635 351/76/635 360/78/635
f 253/68/636 342/77/636 351/76/636
f 253/68/637 254/66/637 333/75/637
f 254/66/638 255/65/638 324/74/638
f 255/65/639 256/64/639 315/73/639
f 256/64/640 57/63/640 306/72/640
f 193/1/641 136/4/641 257/2/641
f 136/4/642 135/6/642 258/5/642
f 135/6/643 134/8/643 259/7/643
f 134/8/644 133/11/644 260/9/644
f 132/10/645 261/13/645 260/9/645
f 131/12/646 262/15/646 261/13/646
f 130/14/647 263/17/647 262/15/647
f 129/16/648 72/25/648 263/17/648
f 194/3/649 257/2/649 264/18/649
f 257/2/650 258/5/650 265/20/650
f 258/5/651 259/7/651 266/21/651
f 259/7/652 260/9/652 267/22/652
f 261/13/653 268/23/653 267/22/653
f 262/15/654 269/24/654 268/23/654
f 263/17/655 270/26/655 269/24/655
f 72/25/656 71/34/656 270/26/656
f 195/19/657 264/18/657 271/27/657
f 264/18/658 265/20/658 272/29/658
f 265/20/659 266/21/659 273/30/659
f 266/21/660 267/22/660 274/31/660
f 268/23/661 275/32/661 274/31/661
f 269/24/662 276/33/662 275/32/662
f 270/26/663 277/35/663 276/33/663
f 71/34/664 70/43/664 277/35/664
f 196/28/665 271/27/665 278/36/665
f 271/27/666 272/29/666 279/38/666
f 272/29/667 273/30/667 280/39/667
f 273/30/668 274/31/668 281/40/668
f 275/32/669 282/41/669 281/40/669
f 276/33/670 283/42/670 282/41/670
f 277/35/671 284/44/671 283/42/671
f 70/43/672 69/81/672 284/44/672
f 278/36/673 285/46/673 198/45/673
f 279/38/674 286/47/674 285/46/674
f 280/39/675 287/48/675 286/47/675
f 281/40/676 288/50/676 287/48/676
f 281/40/677 282/41/677 289/49/677
f 282/41/678 283/42/678 290/51/678
f 283/42/679 284/44/679 291/52/679
f 284/44/680 69/81/680 68/53/680
f 285/46/681 292/55/681 199/54/681
f 286/47/682 293/56/682 292/55/682
f 287/48/683 294/57/683 293/56/683
f 288/50/684 295/59/684 294/57/684
f 288/50/685 289/49/685 296/58/685
f 289/49/686 290/51/686 297/60/686
f 290/51/687 291/52/687 298/61/687
f 291/52/688 68/53/688 67/62/688
f 292/55/689 299/64/689 200/63/689
f 293/56/690 300/65/690 299/64/690
f 294/57/691 301/66/691 300/65/691
f 295/59/692 302/68/692 301/66/692
f 295/59/693 296/58/693 303/67/693
f 296/58/694 297/60/694 304/69/694
f 297/60/695 298/61/695 305/70/695
f 298/61/696 67/62/696 66/71/696
f 299/64/697 2/73/697 1/72/697
f 300/65/698 3/74/698 2/73/698
f 301/66/699 4/75/699 3/74/699
f 302/68/700 5/77/700 4/75/700
f 302/68/701 303/67/701 6/76/701
f 303/67/702 304/69/702 7/78/702
f 304/69/703 305/70/703 8/79/703
f 305/70/704 66/71/704 65/80/704
f 306/72/705 307/73/705 316/64/705
f 307/73/706 308/74/706 317/65/706
f 308/74/707 309/75/707 318/66/707
f 309/75/708 310/77/708 319/68/708
f 311/76/709 320/67/709 319/68/709
f 312/78/710 321/69/710 320/67/710
f 313/79/711 322/70/711 321/69/711
f 314/80/712 323/71/712 322/70/712
f 315/63/713 316/64/713 325/55/713
f 316/64/714 317/65/714 326/56/714
f 317/65/715 318/66/715 327/57/715
f 318/66/716 319/68/716 328/59/716
f 320/67/717 329/58/717 328/59/717
f 321/69/718 330/60/718 329/58/718
f 322/70/719 331/61/719 330/60/719
f 323/71/720 332/62/720 331/61/720
f 324/54/721 325/55/721 334/46/721
f 325/55/722 326/56/722 335/47/722
f 326/56/723 327/57/723 336/48/723
f 327/57/724 328/59/724 337/50/724
f 329/58/725 338/49/725 337/50/725
f 330/60/726 339/51/726 338/49/726
f 331/61/727 340/52/727 339/51/727
f 332/62/728 341/53/728 340/52/728
f 333/45/729 334/46/729 343/36/729
f 334/46/730 335/47/730 344/38/730
f 335/47/731 336/48/731 345/39/731
f 336/48/732 337/50/732 346/40/732
f 338/49/733 347/41/733 346/40/733
f 339/51/734 348/42/734 347/41/734
f 340/52/735 349/44/735 348/42/735
f 341/53/736 350/81/736 349/44/736
f 343/36/737 352/27/737 351/28/737
f 344/38/738 353/29/738 352/27/738
f 345/39/739 354/30/739 353/29/739
f 346/40/740 355/31/740 354/30/740
f 346/40/741 347/41/741 356/32/741
f 347/41/742 348/42/742 357/33/742
f 348/42/743 349/44/743 358/35/743
f 349/44/744 350/81/744 359/43/744
f 352/27/745 361/18/745 360/19/745
f 353/29/746 362/20/746 361/18/746
f 354/30/747 363/21/747 362/20/747
f 355/31/748 364/22/748 363/21/748
f 355/31/749 356/32/749 365/23/749
f 356/32/750 357/33/750 366/24/750
f 357/33/751 358/35/751 367/26/751
f 358/35/752 359/43/752 368/34/752
f 361/18/753 370/2/753 369/3/753
f 362/20/754 371/5/754 370/2/754
f 363/21/755 372/7/755 371/5/755
f 364/22/756 373/9/756 372/7/756
f 364/22/757 365/23/757 374/13/757
f 365/23/758 366/24/758 375/15/758
f 366/24/759 367/26/759 376/17/759
f 367/26/760 368/34/760 377/25/760
f 370/2/761 379/4/761 378/1/761
f 371/5/762 380/6/762 379/4/762
f 372/7/763 381/8/763 380/6/763
f 373/9/764 382/11/764 381/8/764
f 373/9/765 374/13/765 383/10/765
f 374/13/766 375/15/766 384/12/766
f 375/15/767 376/17/767 385/14/767
f 376/17/768 377/25/768 386/16/768
