# Blender 4.3.2
# www.blender.org
o Plane
v -1.000000 -0.500000 -0.000000
v -1.000000 -0.000000 -0.000000
v 0.000000 -0.500000 0.000000
v 0.000000 0.000000 0.000000
vn -0.0000 -0.0000 -1.0000
vt 0.760074 0.015995
vt 0.532760 0.538603
vt 0.532760 0.015995
vt 0.760074 0.538603
s 0
f 2/1/1 3/2/1 1/3/1
f 2/1/1 4/4/1 3/2/1
o Plane.001
v 0.500000 -1.000000 -0.000000
v -0.000000 -1.000000 -0.000000
v 0.500000 -0.000000 0.000000
v 0.000000 0.000000 0.000000
vn -0.0000 -0.0000 -1.0000
vt 0.760074 0.015995
vt 0.532760 0.538603
vt 0.532760 0.015995
vt 0.760074 0.538603
s 0
f 6/5/2 7/6/2 5/7/2
f 6/5/2 8/8/2 7/6/2
o Plane.002
v 1.000000 0.500000 -0.000000
v 1.000000 -0.000000 -0.000000
v -0.000000 0.500000 0.000000
v -0.000000 0.000000 0.000000
vn -0.0000 -0.0000 -1.0000
vt 0.760074 0.015995
vt 0.532760 0.538603
vt 0.532760 0.015995
vt 0.760074 0.538603
s 0
f 10/9/3 11/10/3 9/11/3
f 10/9/3 12/12/3 11/10/3
o Plane.003
v -0.500000 1.000000 -0.000000
v -0.000000 1.000000 -0.000000
v -0.500000 0.000000 0.000000
v -0.000000 0.000000 0.000000
vn -0.0000 -0.0000 -1.0000
vt 0.760074 0.015995
vt 0.532760 0.538603
vt 0.532760 0.015995
vt 0.760074 0.538603
s 0
f 14/13/4 15/14/4 13/15/4
f 14/13/4 16/16/4 15/14/4
