# Blender 4.3.2
# www.blender.org
o Cone
v -0.707107 0.000000 -0.707107
v 0.707107 0.000000 -0.707107
v 0.707107 0.000000 0.707107
v -0.707107 0.000000 0.707107
v 0.000000 2.000000 0.000000
v -0.771752 -0.040521 -0.771752
v 0.771752 -0.040521 -0.771752
v 0.771752 -0.040521 0.771752
v -0.771752 -0.040521 0.771752
v 0.000000 2.100000 0.000000
vn -0.0000 -0.3333 0.9428
vn -0.9428 -0.3333 -0.0000
vn -0.0000 1.0000 -0.0000
vn -0.0000 -0.3333 -0.9428
vn 0.9428 -0.3333 -0.0000
vn -0.0000 0.3392 -0.9407
vn 0.9407 0.3392 -0.0000
vn -0.0000 -1.0000 -0.0000
vn -0.0000 0.3392 0.9407
vn -0.9407 0.3392 -0.0000
vt 1.000000 1.000000
vt 1.000000 0.000000
vt 0.500000 0.500000
vt 0.000000 0.000000
vt 0.630000 0.250000
vt 0.870000 0.250000
vt 0.750000 0.370000
vt 0.000000 1.000000
vt 0.750000 0.130000
s 0
f 1/1/1 2/2/1 5/3/1
f 2/2/2 3/4/2 5/3/2
f 4/5/3 2/6/3 1/7/3
f 3/4/4 4/8/4 5/3/4
f 4/8/5 1/1/5 5/3/5
f 6/1/6 10/3/6 7/2/6
f 7/2/7 10/3/7 8/4/7
f 7/6/8 9/5/8 6/7/8
f 8/4/9 10/3/9 9/8/9
f 9/8/10 10/3/10 6/1/10
f 4/5/3 3/9/3 2/6/3
f 7/6/8 8/9/8 9/5/8
